CinzelDecorative-Regular.ufo
<glyph name="asterisk" format="1">
  <advance width="386"/>
  <unicode hex="002A"/>
  <outline>
    <contour>
      <point x="347.831" y="623.21" type="line"/>
      <point x="350.948" y="658.921" type="line"/>
      <point x="327.436" y="685.98" type="line"/>
      <point x="235.209" y="641.926" type="line"/>
      <point x="198.022" y="613.269" type="line"/>
      <point x="213.901" y="657.505" type="line"/>
      <point x="226.503" y="758.831" type="line"/>
      <point x="193.503" y="772.831" type="line"/>
      <point x="160.503" y="758.831" type="line"/>
      <point x="173.901" y="657.505" type="line"/>
      <point x="189.675" y="613.252" type="line"/>
      <point x="152.319" y="642.088" type="line"/>
      <point x="59.8461" y="685.384" type="line"/>
      <point x="36.3338" y="658.326" type="line"/>
      <point x="39.4508" y="622.615" type="line"/>
      <point x="139.958" y="604.045" type="line"/>
      <point x="186.969" y="605.374" type="line"/>
      <point x="148.051" y="578.871" type="line"/>
      <point x="78.2973" y="504.304" type="line"/>
      <point x="96.766" y="473.581" type="line"/>
      <point x="131.693" y="465.51" type="line"/>
      <point x="180.412" y="555.36" type="line"/>
      <point x="193.693" y="600.541" type="line"/>
      <point x="206.904" y="555.273" type="line"/>
      <point x="256.267" y="465.891" type="line"/>
      <point x="291.193" y="473.962" type="line"/>
      <point x="309.662" y="504.685" type="line"/>
      <point x="239.265" y="578.785" type="line"/>
      <point x="200.486" y="605.319" type="line"/>
      <point x="247.57" y="603.884" type="line"/>
    </contour>
  </outline>
</glyph>
<glyph name="one" format="1">
  <advance width="344"/>
  <unicode hex="0031"/>
  <outline>
    <contour>
      <point x="67.628" y="9.979" type="line"/>
      <point x="67.489" y="0" type="line"/>
      <point x="284.041" y="0" type="line"/>
      <point x="283.902" y="10" type="line"/>
      <point x="262.997" y="10" type="line" smooth="yes"/>
      <point x="233.072" y="9.949"/>
      <point x="207.797" y="33.75"/>
      <point x="207.797" y="63.45" type="curve" smooth="yes"/>
      <point x="207.797" y="535.898" type="line" smooth="yes"/>
      <point x="207.797" y="565.892"/>
      <point x="232.122" y="590.051"/>
      <point x="262.266" y="590.021" type="curve" smooth="yes"/>
      <point x="283.171" y="590.021" type="line"/>
      <point x="283.31" y="600" type="line"/>
      <point x="66.758" y="600" type="line"/>
      <point x="66.897" y="590" type="line"/>
      <point x="87.802" y="590" type="line" smooth="yes"/>
      <point x="117.582" y="590.051"/>
      <point x="142.756" y="566.48"/>
      <point x="143" y="536.982" type="curve" smooth="yes"/>
      <point x="143" y="64.102" type="line" smooth="yes"/>
      <point x="143" y="34.108"/>
      <point x="118.677" y="9.94899"/>
      <point x="88.533" y="9.97899" type="curve" smooth="yes"/>
    </contour>
  </outline>
</glyph>
<glyph name="four" format="1">
  <advance width="583"/>
  <unicode hex="0034"/>
  <outline>
    <contour>
      <point x="502.797" y="148.763" type="line"/>
      <point x="523.797" y="223.763" type="line"/>
      <point x="513.797" y="223.763" type="line"/>
      <point x="501.797" y="209.867"/>
      <point x="495.992" y="203.763"/>
      <point x="459.154" y="203.763" type="curve" smooth="yes"/>
      <point x="415.646" y="203.763" type="line"/>
      <point x="415.646" y="614" type="line"/>
      <point x="406.281" y="614" type="line"/>
      <point x="40" y="158.763" type="line"/>
      <point x="40" y="148.763" type="line"/>
      <point x="350.646" y="148.763" type="line"/>
      <point x="350.646" y="-38" type="line"/>
      <point x="349.525" y="-68"/>
      <point x="324.916" y="-90"/>
      <point x="295.469" y="-90" type="curve" smooth="yes"/>
      <point x="284.564" y="-90" type="line"/>
      <point x="284.425" y="-100" type="line"/>
      <point x="481.886" y="-100" type="line"/>
      <point x="481.747" y="-90" type="line"/>
      <point x="470.842" y="-90" type="line" smooth="yes"/>
      <point x="441.13" y="-90"/>
      <point x="416.002" y="-66"/>
      <point x="415.646" y="-37" type="curve" smooth="yes"/>
      <point x="415.646" y="148.763" type="line"/>
    </contour>
    <contour>
      <point x="114.943" y="203.763" type="line"/>
      <point x="350.646" y="496.31" type="line"/>
      <point x="350.646" y="203.763" type="line"/>
    </contour>
  </outline>
</glyph>
<glyph name="seven" format="1">
  <advance width="502"/>
  <unicode hex="0037"/>
  <outline>
    <contour>
      <point x="63.2184" y="598.125" type="line"/>
      <point x="462.58" y="598.125" type="line"/>
      <point x="354.965" y="310.481" type="line" smooth="yes"/>
      <point x="330.275" y="244.057"/>
      <point x="247.148" y="10.415"/>
      <point x="220.691" y="-100" type="curve"/>
      <point x="150.691" y="-100" type="line"/>
      <point x="191.453" y="1.55698"/>
      <point x="272.338" y="204.145"/>
      <point x="314.226" y="314.053" type="curve" smooth="yes"/>
      <point x="402.245" y="545" type="line"/>
      <point x="119.968" y="545" type="line" smooth="yes"/>
      <point x="79.985" y="545"/>
      <point x="59.7611" y="524.656"/>
      <point x="45" y="485" type="curve"/>
      <point x="35" y="485" type="line"/>
    </contour>
  </outline>
</glyph>
<glyph name="less" format="1">
  <advance width="481"/>
  <unicode hex="003C"/>
  <outline>
    <contour>
      <point x="441.723" y="523.253" type="line"/>
      <point x="40" y="332.255" type="line"/>
      <point x="40" y="287.255" type="line"/>
      <point x="441.723" y="96.254" type="line"/>
      <point x="441.723" y="144.254" type="line"/>
      <point x="99.3022" y="309.968" type="line"/>
      <point x="441.723" y="475.253" type="line"/>
    </contour>
  </outline>
</glyph>
<glyph name="at" format="1">
  <advance width="977"/>
  <unicode hex="0040"/>
  <outline>
    <contour>
      <point x="549.848" y="234.215" type="line"/>
      <point x="555.686" y="126.985" type="line"/>
      <point x="555.686" y="102.861"/>
      <point x="529.736" y="90.128"/>
      <point x="515.078" y="90.128" type="curve" smooth="yes"/>
      <point x="508.118" y="90.128" type="line"/>
      <point x="506.814" y="82.733" type="line"/>
      <point x="664.986" y="82.733" type="line"/>
      <point x="666.301" y="90.1951" type="line"/>
      <point x="661.188" y="90.1951" type="line" smooth="yes"/>
      <point x="642.088" y="90.1951"/>
      <point x="623.933" y="104.689"/>
      <point x="620.13" y="137.212" type="curve" smooth="yes"/>
      <point x="578.798" y="540.909" type="line"/>
      <point x="572.078" y="540.909" type="line"/>
      <point x="390.285" y="291.002" type="line" smooth="yes"/>
      <point x="338.903" y="221.022"/>
      <point x="266.257" y="101.822"/>
      <point x="191.3" y="102.83" type="curve" smooth="yes"/>
      <point x="105.987" y="103.978"/>
      <point x="90.952" y="244.661"/>
      <point x="155.803" y="390.319" type="curve" smooth="yes"/>
      <point x="240.941" y="581.539"/>
      <point x="416.24" y="683.854"/>
      <point x="616.854" y="657.531" type="curve" smooth="yes"/>
      <point x="779.048" y="636.249"/>
      <point x="872.531" y="498.826"/>
      <point x="849.705" y="309.049" type="curve" smooth="yes"/>
      <point x="813.174" y="5.33101"/>
      <point x="542.943" y="-191"/>
      <point x="190.337" y="-53" type="curve"/>
      <point x="194.337" y="-63" type="line"/>
      <point x="625.761" y="-246"/>
      <point x="882.401" y="23.133"/>
      <point x="914.705" y="309.049" type="curve" smooth="yes"/>
      <point x="936.562" y="502.5"/>
      <point x="818.379" y="661.323"/>
      <point x="616.854" y="687.531" type="curve" smooth="yes"/>
      <point x="376.821" y="718.747"/>
      <point x="175.826" y="596.818"/>
      <point x="90.8031" y="394.938" type="curve" smooth="yes"/>
      <point x="16.1361" y="217.647"/>
      <point x="82.3734" y="72.008"/>
      <point x="191.3" y="72.8302" type="curve" smooth="yes"/>
      <point x="261.578" y="73.3607"/>
      <point x="315.077" y="135.407"/>
      <point x="385.824" y="234.215" type="curve"/>
    </contour>
    <contour>
      <point x="538.054" y="450.842" type="line"/>
      <point x="548.629" y="256.601" type="line"/>
      <point x="401.726" y="256.601" type="line"/>
    </contour>
  </outline>
</glyph>
<glyph name="B" format="1">
  <advance width="594"/>
  <unicode hex="0042"/>
  <outline>
    <contour>
      <point x="57.6844" y="700.061" type="line"/>
      <point x="57.8456" y="690.061" type="line"/>
      <point x="70.333" y="690" type="line" smooth="yes"/>
      <point x="103.172" y="690"/>
      <point x="133.041" y="665.243"/>
      <point x="134.53" y="627.745" type="curve"/>
      <point x="134.53" y="45.5709" type="line"/>
      <point x="70.4925" y="73.1422"/>
      <point x="25.5806" y="129.856"/>
      <point x="11.1479" y="238.47" type="curve"/>
      <point x="0.147908" y="236.47" type="line"/>
      <point x="-5" y="68"/>
      <point x="108.333" y="-14"/>
      <point x="271.333" y="-14" type="curve" smooth="yes"/>
      <point x="440.333" y="-14"/>
      <point x="554.333" y="73"/>
      <point x="554.333" y="203" type="curve" smooth="yes"/>
      <point x="554.333" y="306"/>
      <point x="488.333" y="388"/>
      <point x="353.637" y="408.238" type="curve"/>
      <point x="401.333" y="426"/>
      <point x="433.333" y="475"/>
      <point x="433.333" y="538" type="curve" smooth="yes"/>
      <point x="433.333" y="640"/>
      <point x="349.333" y="700"/>
      <point x="226.128" y="700" type="curve" smooth="yes"/>
    </contour>
    <contour>
      <point x="199.647" y="667.85" type="line"/>
      <point x="212.509" y="667.818" type="line" smooth="yes"/>
      <point x="305.333" y="668"/>
      <point x="358.333" y="629"/>
      <point x="358.333" y="536" type="curve" smooth="yes"/>
      <point x="358.333" y="434"/>
      <point x="293.333" y="399"/>
      <point x="233.349" y="399.222" type="curve"/>
      <point x="233.577" y="389.81" type="line"/>
      <point x="330.333" y="390"/>
      <point x="479.333" y="362"/>
      <point x="479.333" y="208" type="curve" smooth="yes"/>
      <point x="479.333" y="102"/>
      <point x="408.333" y="22"/>
      <point x="274.518" y="22.4697" type="curve" smooth="yes"/>
      <point x="248.256" y="22.4697"/>
      <point x="223.181" y="23.9418"/>
      <point x="199.647" y="27.5931" type="curve"/>
    </contour>
  </outline>
</glyph>
<glyph name="D" format="1">
  <advance width="838"/>
  <unicode hex="0044"/>
  <outline>
    <contour>
      <point x="-89" y="549.583" type="line"/>
      <point x="-56" y="611.535"/>
      <point x="-16" y="665.519"/>
      <point x="157.862" y="670.238" type="curve"/>
      <point x="157.862" y="67.253" type="line"/>
      <point x="154.425" y="35.0939"/>
      <point x="127.244" y="10.0371"/>
      <point x="94.163" y="10.0371" type="curve" smooth="yes"/>
      <point x="81.513" y="10.0571" type="line"/>
      <point x="81.351" y="0.057148" type="line"/>
      <point x="419.536" y="0" type="line" smooth="yes"/>
      <point x="633.129" y="0"/>
      <point x="778.678" y="139.879"/>
      <point x="778.678" y="350.054" type="curve" smooth="yes"/>
      <point x="778.678" y="559.811"/>
      <point x="633.08" y="695.112"/>
      <point x="419.536" y="699.706" type="curve" smooth="yes"/>
      <point x="331.459" y="701.601"/>
      <point x="257.026" y="703.773"/>
      <point x="194.213" y="702.682" type="curve" smooth="yes"/>
      <point x="24.994" y="699.742"/>
      <point x="-60" y="673.117"/>
      <point x="-100" y="553.583" type="curve"/>
    </contour>
    <contour>
      <point x="222.983" y="670.15" type="line"/>
      <point x="419.536" y="669.323" type="line" smooth="yes"/>
      <point x="590.94" y="669.323"/>
      <point x="703.678" y="541.615"/>
      <point x="703.678" y="350.054" type="curve" smooth="yes"/>
      <point x="703.678" y="157.913"/>
      <point x="589.94" y="29.8192"/>
      <point x="419.536" y="29.8192" type="curve" smooth="yes"/>
      <point x="222.983" y="29.8306" type="line"/>
    </contour>
    <contour>
      <point x="436.243" y="350" type="move" smooth="yes"/>
    </contour>
    <contour>
      <point x="420.243" y="764" type="move" smooth="yes"/>
    </contour>
  </outline>
</glyph>
<glyph name="J" format="1">
  <advance width="339"/>
  <unicode hex="004A"/>
  <outline>
    <contour>
      <point x="60.0847" y="700.06" type="line"/>
      <point x="60.2467" y="690.06" type="line"/>
      <point x="72.8967" y="690.08" type="line" smooth="yes"/>
      <point x="107.898" y="690.08"/>
      <point x="136.295" y="662.03"/>
      <point x="136.951" y="627.196" type="curve" smooth="yes"/>
      <point x="136.961" y="82.923" type="line" smooth="yes"/>
      <point x="136.961" y="-142"/>
      <point x="-6" y="-160"/>
      <point x="-80" y="-135" type="curve"/>
      <point x="-84" y="-146" type="line"/>
      <point x="6.6487" y="-188"/>
      <point x="202.163" y="-160"/>
      <point x="202.163" y="80.099" type="curve" smooth="yes"/>
      <point x="202.163" y="627.435" type="line" smooth="yes"/>
      <point x="202.944" y="662.158"/>
      <point x="231.291" y="690.08"/>
      <point x="266.212" y="690.08" type="curve" smooth="yes"/>
      <point x="278.862" y="690.06" type="line"/>
      <point x="279.024" y="700.06" type="line"/>
    </contour>
    <contour>
      <point x="171" y="700" type="move" smooth="yes"/>
    </contour>
  </outline>
</glyph>
<glyph name="K" format="1">
  <advance width="669"/>
  <unicode hex="004B"/>
  <outline>
    <contour>
      <point x="201.922" y="627.818" type="line" smooth="yes"/>
      <point x="202.9" y="662.363"/>
      <point x="231.167" y="690.08"/>
      <point x="265.959" y="690.08" type="curve" smooth="yes"/>
      <point x="278.609" y="690.06" type="line"/>
      <point x="278.771" y="700.06" type="line"/>
      <point x="60.016" y="700.06" type="line"/>
      <point x="60.178" y="690.06" type="line"/>
      <point x="72.828" y="690.08" type="line" smooth="yes"/>
      <point x="107.692" y="690.08"/>
      <point x="136.003" y="662.249"/>
      <point x="136.873" y="627.605" type="curve" smooth="yes"/>
      <point x="136.873" y="72.8638" type="line" smooth="yes"/>
      <point x="136.21" y="38.0288"/>
      <point x="107.813" y="9.97877"/>
      <point x="72.8109" y="9.97877" type="curve" smooth="yes"/>
      <point x="60.1609" y="9.99977" type="line"/>
      <point x="59.9999" y="0" type="line"/>
      <point x="278.787" y="0" type="line"/>
      <point x="278.626" y="9.99977" type="line"/>
      <point x="265.976" y="9.97877" type="line" smooth="yes"/>
      <point x="230.974" y="9.97877"/>
      <point x="202.577" y="38.0288"/>
      <point x="201.922" y="72.8638" type="curve" smooth="yes"/>
    </contour>
    <contour>
      <point x="302.035" y="374.984" type="line"/>
      <point x="535.311" y="644.187" type="line" smooth="yes"/>
      <point x="561.129" y="673.112"/>
      <point x="600.136" y="690.884"/>
      <point x="643.033" y="690.98" type="curve" smooth="yes"/>
      <point x="647.413" y="690.98" type="line"/>
      <point x="647.413" y="700" type="line"/>
      <point x="436.186" y="700" type="line"/>
      <point x="436.186" y="691.157" type="line"/>
      <point x="445.85" y="691.164" type="line" smooth="yes"/>
      <point x="473.321" y="691.164"/>
      <point x="486.932" y="666.233"/>
      <point x="469.936" y="643.926" type="curve" smooth="yes"/>
      <point x="234.077" y="348.183" type="line"/>
      <point x="565.417" y="-5" type="line" smooth="yes"/>
      <point x="743.015" y="-194"/>
      <point x="892.915" y="-175"/>
      <point x="959.141" y="-160" type="curve"/>
      <point x="959.141" y="-150" type="line"/>
      <point x="836.159" y="-150"/>
      <point x="722.016" y="-74"/>
      <point x="642.143" y="11.6189" type="curve" smooth="yes"/>
    </contour>
    <contour>
      <point x="361.306" y="750" type="move" smooth="yes"/>
    </contour>
    <contour>
      <point x="391.306" y="-64" type="move" smooth="yes"/>
    </contour>
  </outline>
</glyph>
<glyph name="M" format="1">
  <advance width="931"/>
  <unicode hex="004D"/>
  <outline>
    <contour>
      <point x="749.744" y="713.697" type="line"/>
      <point x="740.602" y="713.697" type="line"/>
      <point x="471.602" y="111.02" type="line"/>
      <point x="230.569" y="632.819" type="line" smooth="yes"/>
      <point x="198.993" y="701.177"/>
      <point x="103.69" y="836.386"/>
      <point x="-67" y="797.904" type="curve"/>
      <point x="-67" y="787.904" type="line"/>
      <point x="54.0575" y="803.375"/>
      <point x="125.092" y="698.905"/>
      <point x="167.314" y="615.889" type="curve"/>
      <point x="103.883" y="70.3933" type="line"/>
      <point x="97.777" y="32.1304"/>
      <point x="66.3191" y="9.99973"/>
      <point x="31.3279" y="9.99093" type="curve" smooth="yes"/>
      <point x="15.4139" y="9.99993" type="line"/>
      <point x="15.4139" y="0" type="line"/>
      <point x="209.081" y="0" type="line"/>
      <point x="209.081" y="9.44493" type="line"/>
      <point x="193.5" y="9.44493" type="line" smooth="yes"/>
      <point x="175" y="8.99993"/>
      <point x="152.351" y="28.0967"/>
      <point x="154.511" y="52.1443" type="curve" smooth="yes"/>
      <point x="199.105" y="548.63" type="line"/>
      <point x="458.147" y="-14" type="line"/>
      <point x="467.569" y="-14" type="line"/>
      <point x="474.023" y="27.3868"/>
      <point x="501.886" y="88.1098"/>
      <point x="501.886" y="88.1098" type="curve"/>
      <point x="709.987" y="558.258" type="line"/>
      <point x="770.967" y="112.518" type="line" smooth="yes"/>
      <point x="794.239" y="-58"/>
      <point x="907.512" y="-202"/>
      <point x="1111.82" y="-172" type="curve"/>
      <point x="1111.82" y="-162" type="line"/>
      <point x="972.612" y="-168"/>
      <point x="871.872" y="-65"/>
      <point x="842.665" y="121.574" type="curve" smooth="yes"/>
    </contour>
  </outline>
</glyph>
<glyph name="N" format="1">
  <advance width="841"/>
  <unicode hex="004E"/>
  <outline>
    <contour>
      <point x="1050" y="-142" type="line"/>
      <point x="888.435" y="-173"/>
      <point x="787.502" y="-14"/>
      <point x="715.983" y="65.4647" type="curve"/>
      <point x="715.983" y="630.256" type="line"/>
      <point x="717.042" y="663.448"/>
      <point x="744.237" y="690.043"/>
      <point x="777.696" y="690.039" type="curve" smooth="yes"/>
      <point x="796.152" y="690.02" type="line"/>
      <point x="796.306" y="700.019" type="line"/>
      <point x="590.233" y="700.019" type="line"/>
      <point x="590.387" y="690.019" type="line"/>
      <point x="608.841" y="690.038" type="line" smooth="yes"/>
      <point x="642.579" y="690.042"/>
      <point x="669.944" y="663.005"/>
      <point x="670.575" y="629.431" type="curve" smooth="yes"/>
      <point x="670.601" y="115.889" type="line"/>
      <point x="167.217" y="675.668" type="line" smooth="yes"/>
      <point x="77.3921" y="775.549"/>
      <point x="-28" y="881.263"/>
      <point x="-188" y="814.045" type="curve"/>
      <point x="-184" y="803.977" type="line"/>
      <point x="-34" y="847.524"/>
      <point x="66.9115" y="692"/>
      <point x="125.345" y="620.311" type="curve"/>
      <point x="125.345" y="70.5439" type="line" smooth="yes"/>
      <point x="124.69" y="36.9922"/>
      <point x="97.3317" y="9.98082"/>
      <point x="63.6131" y="9.98082" type="curve" smooth="yes"/>
      <point x="45.1551" y="9.99982" type="line"/>
      <point x="45" y="0" type="line"/>
      <point x="250.987" y="0" type="line"/>
      <point x="250.833" y="9.99982" type="line"/>
      <point x="232.372" y="9.98082" type="line" smooth="yes"/>
      <point x="198.901" y="9.98082"/>
      <point x="171.696" y="36.6006"/>
      <point x="170.657" y="69.8127" type="curve"/>
      <point x="170.657" y="569.945" type="line"/>
      <point x="698.082" y="-14" type="line" smooth="yes"/>
      <point x="788.058" y="-113"/>
      <point x="892.904" y="-203"/>
      <point x="1053.82" y="-152" type="curve"/>
    </contour>
    <contour>
      <point x="425.897" y="764" type="move" smooth="yes"/>
    </contour>
    <contour>
      <point x="425.897" y="-64" type="move" smooth="yes"/>
    </contour>
  </outline>
</glyph>
<glyph name="P" format="1">
  <advance width="620"/>
  <unicode hex="0050"/>
  <outline>
    <contour>
      <point x="60.868" y="666.636" type="line"/>
      <point x="73" y="668" type="line" smooth="yes"/>
      <point x="115.954" y="672.52"/>
      <point x="136.853" y="647.167"/>
      <point x="137.013" y="614.288" type="curve" smooth="yes"/>
      <point x="137.013" y="72.864" type="line"/>
      <point x="136" y="36"/>
      <point x="106" y="10"/>
      <point x="73" y="10" type="curve" smooth="yes"/>
      <point x="60.161" y="10" type="line"/>
      <point x="60" y="0" type="line"/>
      <point x="278.897" y="0" type="line"/>
      <point x="278.736" y="10" type="line"/>
      <point x="266" y="10" type="line" smooth="yes"/>
      <point x="233" y="10"/>
      <point x="203" y="36"/>
      <point x="202.032" y="72.864" type="curve" smooth="yes"/>
      <point x="202.032" y="665.814" type="line"/>
      <point x="236.997" y="671.893"/>
      <point x="270.08" y="678.795"/>
      <point x="297" y="682" type="curve" smooth="yes"/>
      <point x="415" y="695"/>
      <point x="495.319" y="639.012"/>
      <point x="500" y="510" type="curve" smooth="yes"/>
      <point x="503.412" y="415.975"/>
      <point x="464" y="338"/>
      <point x="388" y="324" type="curve" smooth="yes"/>
      <point x="338" y="315"/>
      <point x="271" y="332"/>
      <point x="255.049" y="393.941" type="curve"/>
      <point x="246.049" y="390.941" type="line"/>
      <point x="256" y="310"/>
      <point x="327" y="283"/>
      <point x="395" y="287" type="curve" smooth="yes"/>
      <point x="509" y="294"/>
      <point x="578.96" y="385.999"/>
      <point x="575" y="510" type="curve" smooth="yes"/>
      <point x="570.242" y="659.008"/>
      <point x="461" y="733"/>
      <point x="301" y="713" type="curve" smooth="yes"/>
      <point x="252" y="707"/>
      <point x="149" y="686"/>
      <point x="59.4884" y="676.542" type="curve"/>
    </contour>
  </outline>
</glyph>
<glyph name="T" format="1">
  <advance width="618"/>
  <unicode hex="0054"/>
  <outline>
    <contour>
      <point x="68.033" y="701" type="line" smooth="yes"/>
      <point x="-65" y="701"/>
      <point x="-134" y="592.429"/>
      <point x="-59" y="501" type="curve"/>
      <point x="-51" y="506" type="line"/>
      <point x="-96" y="590.981"/>
      <point x="-39" y="671.02"/>
      <point x="68.033" y="671.02" type="curve" smooth="yes"/>
      <point x="276.731" y="671.02" type="line"/>
      <point x="276.731" y="71.2345" type="line"/>
      <point x="275.237" y="37.1584"/>
      <point x="247.183" y="9.97898"/>
      <point x="212.728" y="9.97898" type="curve" smooth="yes"/>
      <point x="200.078" y="9.99998" type="line"/>
      <point x="199.917" y="0" type="line"/>
      <point x="418.835" y="0" type="line"/>
      <point x="418.674" y="9.99998" type="line"/>
      <point x="406.024" y="9.97898" type="line" smooth="yes"/>
      <point x="371.291" y="9.97898"/>
      <point x="343.061" y="37.6002"/>
      <point x="341.99" y="72.0634" type="curve"/>
      <point x="341.99" y="671.02" type="line"/>
      <point x="531.535" y="671.02" type="line"/>
      <point x="563.258" y="669.635"/>
      <point x="588.559" y="643.519"/>
      <point x="588.559" y="611.448" type="curve" smooth="yes"/>
      <point x="588.54" y="593.624" type="line"/>
      <point x="598.605" y="593.474" type="line"/>
      <point x="598.605" y="719.196" type="line"/>
      <point x="579.873" y="711.301"/>
      <point x="521.392" y="701.229"/>
      <point x="478.168" y="701" type="curve" smooth="yes"/>
    </contour>
    <contour>
      <point x="309" y="350" type="move" smooth="yes"/>
    </contour>
    <contour>
      <point x="309" y="0" type="move" smooth="yes"/>
    </contour>
    <contour>
      <point x="309" y="700" type="move" smooth="yes"/>
    </contour>
  </outline>
</glyph>
<glyph name="U" format="1">
  <advance width="783"/>
  <unicode hex="0055"/>
  <outline>
    <contour>
      <point x="619.31" y="247.399" type="line" smooth="yes"/>
      <point x="619.152" y="109.457"/>
      <point x="530.011" y="17.4954"/>
      <point x="396.423" y="17.4954" type="curve" smooth="yes"/>
      <point x="269.022" y="17.4954"/>
      <point x="184.088" y="114.614"/>
      <point x="184.088" y="260.292" type="curve" smooth="yes"/>
      <point x="184.088" y="642" type="line"/>
      <point x="185.312" y="669.975"/>
      <point x="208.433" y="690.017"/>
      <point x="236.814" y="690.017" type="curve" smooth="yes"/>
      <point x="253.11" y="690" type="line"/>
      <point x="253.11" y="700" type="line"/>
      <point x="50" y="700" type="line"/>
      <point x="50" y="690" type="line"/>
      <point x="66.2945" y="690.017" type="line" smooth="yes"/>
      <point x="95.1832" y="690.017"/>
      <point x="118.619" y="669.255"/>
      <point x="119.161" y="640.499" type="curve" smooth="yes"/>
      <point x="119.179" y="245.596" type="line" smooth="yes"/>
      <point x="119.097" y="89.8381"/>
      <point x="230.028" y="-14"/>
      <point x="396.423" y="-14" type="curve" smooth="yes"/>
      <point x="558.153" y="-14"/>
      <point x="665.959" y="90.5361"/>
      <point x="665.973" y="247.34" type="curve" smooth="yes"/>
      <point x="665.973" y="580.014" type="line" smooth="yes"/>
      <point x="666.018" y="766.989"/>
      <point x="761.205" y="861.639"/>
      <point x="903.969" y="861.639" type="curve"/>
      <point x="903.969" y="871.639" type="line"/>
      <point x="733.243" y="878.613"/>
      <point x="619.377" y="779.438"/>
      <point x="619.31" y="578.702" type="curve" smooth="yes"/>
    </contour>
    <contour>
      <point x="396.423" y="-7" type="move" smooth="yes"/>
    </contour>
    <contour>
      <point x="421.641" y="764" type="move" smooth="yes"/>
    </contour>
  </outline>
</glyph>
<glyph name="W" format="1">
  <advance width="954"/>
  <unicode hex="0057"/>
  <outline>
    <contour>
      <point x="708.943" y="160.623" type="line"/>
      <point x="511.182" y="715.321" type="line"/>
      <point x="501.869" y="715.642" type="line"/>
      <point x="315.665" y="141.938" type="line"/>
      <point x="164.397" y="628.626" type="line" smooth="yes"/>
      <point x="152.614" y="667.947"/>
      <point x="177.867" y="690.086"/>
      <point x="203.442" y="690.086" type="curve" smooth="yes"/>
      <point x="212.234" y="690.086" type="line"/>
      <point x="212.234" y="700" type="line"/>
      <point x="-10" y="700" type="line"/>
      <point x="-10" y="690" type="line"/>
      <point x="-2" y="690" type="line" smooth="yes"/>
      <point x="28.6406" y="690"/>
      <point x="69.07" y="672.466"/>
      <point x="85.6517" y="629.023" type="curve"/>
      <point x="287.907" y="57.7348" type="line"/>
      <point x="243.501" y="-62"/>
      <point x="148.839" y="-174"/>
      <point x="37.2089" y="-152" type="curve"/>
      <point x="35.2089" y="-162" type="line"/>
      <point x="180.233" y="-194"/>
      <point x="288.599" y="-86"/>
      <point x="333.691" y="55.236" type="curve" smooth="yes"/>
      <point x="494.847" y="558.843" type="line"/>
      <point x="698.988" y="-12" type="line"/>
      <point x="708.424" y="-12" type="line"/>
      <point x="709.955" y="35.624"/>
      <point x="730.285" y="99.156"/>
      <point x="730.285" y="99.156" type="curve"/>
      <point x="922.407" y="656.45" type="line" smooth="yes"/>
      <point x="959.038" y="762.707"/>
      <point x="1038.22" y="927.247"/>
      <point x="1204.22" y="934.023" type="curve"/>
      <point x="1204.22" y="944.023" type="line"/>
      <point x="999.221" y="951.802"/>
      <point x="894.378" y="780.102"/>
      <point x="857.364" y="656.45" type="curve" smooth="yes"/>
    </contour>
    <contour>
      <point x="506.871" y="764" type="move" smooth="yes"/>
    </contour>
  </outline>
</glyph>
<glyph name="backslash" format="1">
  <advance width="406"/>
  <unicode hex="005C"/>
  <outline>
    <contour>
      <point x="6.9198" y="696.502" type="line"/>
      <point x="367.858" y="-14" type="line"/>
      <point x="398.514" y="5.0834" type="line"/>
      <point x="38" y="714" type="line"/>
    </contour>
  </outline>
</glyph>
<glyph name="a" format="1">
  <advance width="712"/>
  <unicode hex="0061"/>
  <outline>
    <contour>
      <point x="359.414" y="714" type="line"/>
      <point x="350.408" y="714" type="line"/>
      <point x="350.408" y="692.013"/>
      <point x="313.382" y="611"/>
      <point x="313.382" y="611" type="curve"/>
      <point x="86.6054" y="72.8934" type="line"/>
      <point x="66.3814" y="28.4311"/>
      <point x="29.4106" y="9.99997"/>
      <point x="-1" y="9.99997" type="curve" smooth="yes"/>
      <point x="-10" y="9.99997" type="line"/>
      <point x="-10" y="0" type="line"/>
      <point x="191.278" y="0" type="line"/>
      <point x="191.278" y="9.90797" type="line"/>
      <point x="182.486" y="9.90797" type="line" smooth="yes"/>
      <point x="156.8" y="9.90797"/>
      <point x="130.157" y="32.4332"/>
      <point x="144.267" y="72.0718" type="curve"/>
      <point x="211.258" y="243" type="line"/>
      <point x="480.605" y="243" type="line"/>
      <point x="544.567" y="72.681" type="line" smooth="yes"/>
      <point x="559.169" y="32.664"/>
      <point x="532.384" y="9.91098"/>
      <point x="506.568" y="9.91098" type="curve" smooth="yes"/>
      <point x="497.776" y="9.91098" type="line"/>
      <point x="497.776" y="0" type="line"/>
      <point x="722.956" y="0" type="line"/>
      <point x="722.956" y="9.99998" type="line"/>
      <point x="714.593" y="9.99998" type="line" smooth="yes"/>
      <point x="683.958" y="9.99998"/>
      <point x="646.965" y="28.4496"/>
      <point x="626.748" y="72.9606" type="curve"/>
    </contour>
    <contour>
      <point x="223.015" y="273" type="line"/>
      <point x="348.806" y="593.954" type="line"/>
      <point x="469.338" y="273" type="line"/>
    </contour>
    <contour>
      <point x="460.38" y="10.3333" type="move" smooth="yes"/>
    </contour>
    <contour>
      <point x="355.899" y="764" type="move" smooth="yes"/>
    </contour>
  </outline>
</glyph>
<glyph name="s" format="1">
  <advance width="476"/>
  <unicode hex="0073"/>
  <outline>
    <contour>
      <point x="171.266" y="476.809" type="line" smooth="yes"/>
      <point x="139.752" y="506"/>
      <point x="131" y="542.935"/>
      <point x="131" y="569" type="curve" smooth="yes"/>
      <point x="131" y="629.935"/>
      <point x="180.315" y="684"/>
      <point x="254" y="684" type="curve" smooth="yes"/>
      <point x="316.315" y="684"/>
      <point x="366.752" y="645"/>
      <point x="366.512" y="581.034" type="curve"/>
      <point x="376.141" y="581.034" type="line"/>
      <point x="376.13" y="703.741" type="line"/>
      <point x="336.511" y="703.741" type="line"/>
      <point x="309.953" y="709.529"/>
      <point x="276.999" y="714"/>
      <point x="250.752" y="714" type="curve" smooth="yes"/>
      <point x="136.752" y="714"/>
      <point x="75" y="629.288"/>
      <point x="75" y="545" type="curve" smooth="yes"/>
      <point x="75" y="506.288"/>
      <point x="88.7521" y="458"/>
      <point x="129.205" y="421.085" type="curve" smooth="yes"/>
      <point x="320.759" y="243.189" type="line" smooth="yes"/>
      <point x="345.752" y="220"/>
      <point x="360" y="189.083"/>
      <point x="360" y="150" type="curve" smooth="yes"/>
      <point x="360" y="70.0829"/>
      <point x="298.997" y="20.0549"/>
      <point x="226" y="15.9999" type="curve" smooth="yes"/>
      <point x="136.997" y="11.0549"/>
      <point x="71.7521" y="76.9999"/>
      <point x="81.8051" y="180.047" type="curve"/>
      <point x="73.0131" y="180.047" type="line"/>
      <point x="57.7801" y="135.21"/>
      <point x="54" y="71.5099"/>
      <point x="61.4531" y="40.6389" type="curve"/>
      <point x="100.752" y="0"/>
      <point x="181.752" y="-14"/>
      <point x="230.752" y="-14" type="curve" smooth="yes"/>
      <point x="345.752" y="-14"/>
      <point x="418" y="62.3929"/>
      <point x="418" y="173" type="curve" smooth="yes"/>
      <point x="418" y="213.393"/>
      <point x="407.752" y="258"/>
      <point x="367.773" y="294.906" type="curve" smooth="yes"/>
    </contour>
    <contour>
      <point x="247.269" y="764" type="move" smooth="yes"/>
    </contour>
    <contour>
      <point x="242.058" y="-64" type="move" smooth="yes"/>
    </contour>
  </outline>
</glyph>
<glyph name="w" format="1">
  <advance width="982"/>
  <unicode hex="0077"/>
  <outline>
    <contour>
      <point x="794.803" y="700" type="line"/>
      <point x="794.803" y="690.093" type="line"/>
      <point x="803.595" y="690.093" type="line" smooth="yes"/>
      <point x="830.803" y="690.093"/>
      <point x="852.24" y="668.812"/>
      <point x="842.309" y="630.432" type="curve"/>
      <point x="708.396" y="162.156" type="line"/>
      <point x="511.182" y="715.321" type="line"/>
      <point x="501.869" y="715.642" type="line"/>
      <point x="315.665" y="141.938" type="line"/>
      <point x="164.397" y="628.626" type="line" smooth="yes"/>
      <point x="152.614" y="667.947"/>
      <point x="177.867" y="690.086"/>
      <point x="203.442" y="690.086" type="curve" smooth="yes"/>
      <point x="212.234" y="690.086" type="line"/>
      <point x="212.234" y="700" type="line"/>
      <point x="-10" y="700" type="line"/>
      <point x="-10" y="690" type="line"/>
      <point x="-2" y="690" type="line" smooth="yes"/>
      <point x="28.6409" y="690"/>
      <point x="69.0708" y="672.465"/>
      <point x="85.6522" y="629.022" type="curve"/>
      <point x="312.596" y="-12" type="line"/>
      <point x="322.032" y="-12" type="line"/>
      <point x="323.678" y="37.1489"/>
      <point x="342.993" y="99.1559"/>
      <point x="342.993" y="99.1559" type="curve"/>
      <point x="494.496" y="559.825" type="line"/>
      <point x="698.988" y="-12" type="line"/>
      <point x="708.424" y="-12" type="line"/>
      <point x="709.955" y="35.6239"/>
      <point x="730.285" y="99.1559"/>
      <point x="730.285" y="99.1559" type="curve"/>
      <point x="895.869" y="628.033" type="line"/>
      <point x="911.232" y="672.192"/>
      <point x="953.096" y="690"/>
      <point x="983.621" y="690" type="curve" smooth="yes"/>
      <point x="992.412" y="690" type="line"/>
      <point x="992.412" y="700" type="line"/>
    </contour>
    <contour>
      <point x="507.149" y="774" type="move" smooth="yes"/>
    </contour>
  </outline>
</glyph>
<glyph name="ordfeminine" format="1">
  <advance width="368"/>
  <unicode hex="00AA"/>
  <outline>
    <contour>
      <point x="186.484" y="714" type="line"/>
      <point x="181.297" y="714" type="line"/>
      <point x="180.145" y="698.935"/>
      <point x="159.974" y="654.683"/>
      <point x="159.974" y="654.683" type="curve"/>
      <point x="48.1278" y="418.371" type="line" smooth="yes"/>
      <point x="36.1164" y="393.696"/>
      <point x="19.3085" y="383.438"/>
      <point x="4.36431" y="383.438" type="curve" smooth="yes"/>
      <point x="0" y="383.438" type="line"/>
      <point x="0" y="377.679" type="line"/>
      <point x="114.463" y="377.679" type="line"/>
      <point x="114.463" y="383.385" type="line"/>
      <point x="110.098" y="383.385" type="line" smooth="yes"/>
      <point x="97.3739" y="383.385"/>
      <point x="82.226" y="396.301"/>
      <point x="91.2057" y="419.038" type="curve" smooth="yes"/>
      <point x="119.724" y="485.947" type="line"/>
      <point x="242.963" y="485.947" type="line"/>
      <point x="268.657" y="419.535" type="line" smooth="yes"/>
      <point x="277.476" y="396.49"/>
      <point x="262.528" y="383.386"/>
      <point x="249.711" y="383.386" type="curve" smooth="yes"/>
      <point x="245.346" y="383.386" type="line"/>
      <point x="245.346" y="377.679" type="line"/>
      <point x="368.302" y="377.679" type="line"/>
      <point x="368.302" y="383.438" type="line"/>
      <point x="364.151" y="383.438" type="line" smooth="yes"/>
      <point x="348.936" y="383.438"/>
      <point x="333.441" y="394.071"/>
      <point x="320.527" y="419.727" type="curve"/>
    </contour>
    <contour>
      <point x="130.014" y="510.087" type="line"/>
      <point x="184.325" y="637.511" type="line"/>
      <point x="233.624" y="510.087" type="line"/>
    </contour>
  </outline>
</glyph>
<glyph name="periodcentered" format="1">
  <advance width="170"/>
  <unicode hex="00B7"/>
  <outline>
    <contour>
      <point x="10" y="321" type="curve"/>
      <point x="20.3466" y="295.286"/>
      <point x="52.4894" y="276"/>
      <point x="85" y="276" type="curve" smooth="yes"/>
      <point x="117.511" y="276"/>
      <point x="149.653" y="295.286"/>
      <point x="160" y="321" type="curve"/>
      <point x="149.653" y="346.714"/>
      <point x="117.511" y="366"/>
      <point x="85" y="366" type="curve" smooth="yes"/>
      <point x="52.4894" y="366"/>
      <point x="20.3466" y="346.714"/>
    </contour>
    <contour>
      <point x="132.041" y="321" type="curve"/>
      <point x="126.288" y="306.704"/>
      <point x="103.075" y="295.982"/>
      <point x="85" y="295.982" type="curve" smooth="yes"/>
      <point x="66.9254" y="295.982"/>
      <point x="43.7118" y="306.704"/>
      <point x="37.9594" y="321" type="curve"/>
      <point x="43.7118" y="335.296"/>
      <point x="66.9254" y="346.018"/>
      <point x="85" y="346.018" type="curve" smooth="yes"/>
      <point x="103.075" y="346.018"/>
      <point x="126.288" y="335.296"/>
    </contour>
  </outline>
</glyph>
<glyph name="Agrave" format="1">
  <advance width="712"/>
  <unicode hex="00C0"/>
  <outline>
    <contour>
      <point x="373.663" y="781" type="line"/>
      <point x="331.341" y="827.631"/>
      <point x="289.018" y="871.263"/>
      <point x="246.696" y="911.894" type="curve"/>
      <point x="231.062" y="897.358"/>
      <point x="216.428" y="879.821"/>
      <point x="205.793" y="859.285" type="curve"/>
      <point x="259.416" y="827.857"/>
      <point x="313.04" y="799.428"/>
      <point x="366.663" y="774" type="curve"/>
    </contour>
    <contour>
      <point x="944.334" y="-191" type="line"/>
      <point x="762.577" y="-230"/>
      <point x="650.906" y="-5"/>
      <point x="594.487" y="155.213" type="curve" smooth="yes"/>
      <point x="472.472" y="500.822" type="line" smooth="yes"/>
      <point x="422.78" y="641.575"/>
      <point x="352.599" y="833.044"/>
      <point x="118.292" y="733.836" type="curve"/>
      <point x="121.116" y="723.732" type="line"/>
      <point x="224.681" y="761.203"/>
      <point x="288.307" y="724.231"/>
      <point x="331.685" y="662.126" type="curve"/>
      <point x="84.0535" y="67.5921" type="line"/>
      <point x="63.3823" y="26.9618"/>
      <point x="28.1727" y="10"/>
      <point x="-1" y="10" type="curve" smooth="yes"/>
      <point x="-10" y="10" type="line"/>
      <point x="-10" y="0" type="line"/>
      <point x="191.278" y="0" type="line"/>
      <point x="191.278" y="9.90861" type="line"/>
      <point x="182.486" y="9.90861" type="line" smooth="yes"/>
      <point x="156.669" y="9.90861"/>
      <point x="129.884" y="32.6642"/>
      <point x="144.486" y="72.6821" type="curve" smooth="yes"/>
      <point x="213.751" y="251.001" type="line"/>
      <point x="488.043" y="251.001" type="line"/>
      <point x="526.794" y="136.564" type="line" smooth="yes"/>
      <point x="628.3" y="-163"/>
      <point x="787.583" y="-259"/>
      <point x="945.159" y="-201" type="curve"/>
    </contour>
    <contour>
      <point x="225.43" y="281" type="line"/>
      <point x="357.053" y="619.071" type="line"/>
      <point x="373.892" y="585.646"/>
      <point x="387.144" y="548.967"/>
      <point x="398.897" y="514.258" type="curve" smooth="yes"/>
      <point x="477.884" y="281" type="line"/>
    </contour>
  </outline>
</glyph>
<glyph name="Aacute" format="1">
  <advance width="712"/>
  <unicode hex="00C1"/>
  <outline>
    <contour>
      <point x="366.595" y="773.971" type="line"/>
      <point x="420.218" y="800.399"/>
      <point x="473.842" y="827.828"/>
      <point x="527.465" y="859.256" type="curve"/>
      <point x="516.831" y="878.792"/>
      <point x="502.196" y="896.329"/>
      <point x="486.562" y="911.865" type="curve"/>
      <point x="444.24" y="871.234"/>
      <point x="401.917" y="826.602"/>
      <point x="359.595" y="780.971" type="curve"/>
    </contour>
    <contour>
      <point x="944.334" y="-191" type="line"/>
      <point x="762.577" y="-230"/>
      <point x="650.906" y="-5"/>
      <point x="594.487" y="155.213" type="curve" smooth="yes"/>
      <point x="472.472" y="500.822" type="line" smooth="yes"/>
      <point x="422.78" y="641.575"/>
      <point x="352.599" y="833.044"/>
      <point x="118.292" y="733.836" type="curve"/>
      <point x="121.116" y="723.732" type="line"/>
      <point x="224.681" y="761.203"/>
      <point x="288.307" y="724.231"/>
      <point x="331.685" y="662.126" type="curve"/>
      <point x="84.0535" y="67.5922" type="line"/>
      <point x="63.3823" y="26.9619"/>
      <point x="28.1727" y="10"/>
      <point x="-1" y="10" type="curve" smooth="yes"/>
      <point x="-10" y="10" type="line"/>
      <point x="-10" y="0" type="line"/>
      <point x="191.278" y="0" type="line"/>
      <point x="191.278" y="9.90867" type="line"/>
      <point x="182.486" y="9.90867" type="line" smooth="yes"/>
      <point x="156.669" y="9.90867"/>
      <point x="129.884" y="32.6643"/>
      <point x="144.486" y="72.6822" type="curve" smooth="yes"/>
      <point x="213.751" y="251.001" type="line"/>
      <point x="488.043" y="251.001" type="line"/>
      <point x="526.794" y="136.564" type="line" smooth="yes"/>
      <point x="628.3" y="-163"/>
      <point x="787.583" y="-259"/>
      <point x="945.159" y="-201" type="curve"/>
    </contour>
    <contour>
      <point x="225.43" y="281" type="line"/>
      <point x="357.053" y="619.071" type="line"/>
      <point x="373.892" y="585.646"/>
      <point x="387.144" y="548.967"/>
      <point x="398.897" y="514.258" type="curve" smooth="yes"/>
      <point x="477.884" y="281" type="line"/>
    </contour>
  </outline>
</glyph>
<glyph name="Atilde" format="1">
  <advance width="712"/>
  <unicode hex="00C3"/>
  <outline>
    <contour>
      <point x="502.302" y="852.516" type="line"/>
      <point x="496.622" y="803.792"/>
      <point x="471.77" y="773.929"/>
      <point x="436.901" y="773.929" type="curve" smooth="yes"/>
      <point x="393.903" y="773.929"/>
      <point x="348.717" y="817.729"/>
      <point x="316.463" y="817.729" type="curve" smooth="yes"/>
      <point x="290.747" y="817.729"/>
      <point x="273.404" y="804.696"/>
      <point x="262.265" y="777" type="curve"/>
      <point x="252.265" y="777" type="line"/>
      <point x="259.705" y="829.532"/>
      <point x="284.1" y="861.729"/>
      <point x="316.463" y="861.729" type="curve" smooth="yes"/>
      <point x="361.71" y="861.729"/>
      <point x="402.591" y="818.929"/>
      <point x="436.901" y="818.929" type="curve" smooth="yes"/>
      <point x="465.142" y="818.929"/>
      <point x="482.871" y="829.677"/>
      <point x="492.302" y="852.516" type="curve"/>
    </contour>
    <contour>
      <point x="944.334" y="-191" type="line"/>
      <point x="762.577" y="-230"/>
      <point x="650.906" y="-5"/>
      <point x="594.487" y="155.213" type="curve" smooth="yes"/>
      <point x="472.472" y="500.822" type="line" smooth="yes"/>
      <point x="422.78" y="641.575"/>
      <point x="352.599" y="833.044"/>
      <point x="118.292" y="733.836" type="curve"/>
      <point x="121.116" y="723.732" type="line"/>
      <point x="224.681" y="761.203"/>
      <point x="288.307" y="724.231"/>
      <point x="331.686" y="662.126" type="curve"/>
      <point x="84.0535" y="67.5921" type="line"/>
      <point x="63.3823" y="26.9618"/>
      <point x="28.1727" y="10"/>
      <point x="-1" y="10" type="curve" smooth="yes"/>
      <point x="-10" y="10" type="line"/>
      <point x="-10" y="0" type="line"/>
      <point x="191.278" y="0" type="line"/>
      <point x="191.278" y="9.90861" type="line"/>
      <point x="182.486" y="9.90861" type="line" smooth="yes"/>
      <point x="156.669" y="9.90861"/>
      <point x="129.884" y="32.6642"/>
      <point x="144.486" y="72.6821" type="curve" smooth="yes"/>
      <point x="213.751" y="251.001" type="line"/>
      <point x="488.043" y="251.001" type="line"/>
      <point x="526.794" y="136.564" type="line" smooth="yes"/>
      <point x="628.3" y="-163"/>
      <point x="787.583" y="-259"/>
      <point x="945.159" y="-201" type="curve"/>
    </contour>
    <contour>
      <point x="225.43" y="281" type="line"/>
      <point x="357.053" y="619.071" type="line"/>
      <point x="373.892" y="585.646"/>
      <point x="387.144" y="548.967"/>
      <point x="398.897" y="514.258" type="curve" smooth="yes"/>
      <point x="477.884" y="281" type="line"/>
    </contour>
  </outline>
</glyph>
<glyph name="Adieresis" format="1">
  <advance width="712"/>
  <unicode hex="00C4"/>
  <outline>
    <contour>
      <point x="311.539" y="813.174" type="curve" smooth="yes"/>
      <point x="311.539" y="834.757"/>
      <point x="294.044" y="852.253"/>
      <point x="272.461" y="852.253" type="curve" smooth="yes"/>
      <point x="250.878" y="852.253"/>
      <point x="233.383" y="834.757"/>
      <point x="233.383" y="813.174" type="curve" smooth="yes"/>
      <point x="233.383" y="791.591"/>
      <point x="250.878" y="774.096"/>
      <point x="272.461" y="774.096" type="curve" smooth="yes"/>
      <point x="294.044" y="774.096"/>
      <point x="311.539" y="791.591"/>
    </contour>
    <contour>
      <point x="499.913" y="813.174" type="curve" smooth="yes"/>
      <point x="499.913" y="834.757"/>
      <point x="482.418" y="852.253"/>
      <point x="460.835" y="852.253" type="curve" smooth="yes"/>
      <point x="439.252" y="852.253"/>
      <point x="421.757" y="834.757"/>
      <point x="421.757" y="813.174" type="curve" smooth="yes"/>
      <point x="421.757" y="791.591"/>
      <point x="439.252" y="774.096"/>
      <point x="460.835" y="774.096" type="curve" smooth="yes"/>
      <point x="482.418" y="774.096"/>
      <point x="499.913" y="791.591"/>
    </contour>
    <contour>
      <point x="944.334" y="-191" type="line"/>
      <point x="762.577" y="-230"/>
      <point x="650.906" y="-5"/>
      <point x="594.487" y="155.213" type="curve" smooth="yes"/>
      <point x="472.472" y="500.822" type="line" smooth="yes"/>
      <point x="422.78" y="641.575"/>
      <point x="352.599" y="833.044"/>
      <point x="118.292" y="733.836" type="curve"/>
      <point x="121.116" y="723.732" type="line"/>
      <point x="224.681" y="761.203"/>
      <point x="288.307" y="724.231"/>
      <point x="331.686" y="662.126" type="curve"/>
      <point x="84.0535" y="67.5922" type="line"/>
      <point x="63.3823" y="26.9619"/>
      <point x="28.1727" y="10"/>
      <point x="-1" y="10" type="curve" smooth="yes"/>
      <point x="-10" y="10" type="line"/>
      <point x="-10" y="0" type="line"/>
      <point x="191.278" y="0" type="line"/>
      <point x="191.278" y="9.90867" type="line"/>
      <point x="182.486" y="9.90867" type="line" smooth="yes"/>
      <point x="156.669" y="9.90867"/>
      <point x="129.884" y="32.6643"/>
      <point x="144.486" y="72.6822" type="curve" smooth="yes"/>
      <point x="213.751" y="251.001" type="line"/>
      <point x="488.043" y="251.001" type="line"/>
      <point x="526.794" y="136.564" type="line" smooth="yes"/>
      <point x="628.3" y="-163"/>
      <point x="787.583" y="-259"/>
      <point x="945.159" y="-201" type="curve"/>
    </contour>
    <contour>
      <point x="225.43" y="281" type="line"/>
      <point x="357.053" y="619.071" type="line"/>
      <point x="373.892" y="585.646"/>
      <point x="387.144" y="548.967"/>
      <point x="398.897" y="514.258" type="curve" smooth="yes"/>
      <point x="477.884" y="281" type="line"/>
    </contour>
  </outline>
</glyph>
<glyph name="Egrave" format="1">
  <advance width="607"/>
  <unicode hex="00C8"/>
  <outline>
    <contour>
      <point x="255.314" y="771" type="line"/>
      <point x="212.992" y="817.631"/>
      <point x="170.669" y="861.263"/>
      <point x="128.347" y="901.894" type="curve"/>
      <point x="112.713" y="887.358"/>
      <point x="98.0782" y="869.821"/>
      <point x="87.4439" y="849.285" type="curve"/>
      <point x="141.067" y="817.857"/>
      <point x="194.691" y="789.428"/>
      <point x="248.314" y="764" type="curve"/>
    </contour>
    <contour>
      <point x="602.845" y="161.544" type="line"/>
      <point x="592.845" y="161.544" type="line"/>
      <point x="561.976" y="85.4061"/>
      <point x="521.283" y="30.5931"/>
      <point x="415.32" y="30.5931" type="curve" smooth="yes"/>
      <point x="201.901" y="30.5931" type="line"/>
      <point x="201.901" y="330.219" type="line"/>
      <point x="392.938" y="330.219" type="line"/>
      <point x="419.251" y="329.181"/>
      <point x="440.275" y="307.555"/>
      <point x="440.275" y="280.978" type="curve" smooth="yes"/>
      <point x="440.259" y="266.244" type="line"/>
      <point x="450.032" y="266.12" type="line"/>
      <point x="450.032" y="424.376" type="line"/>
      <point x="440.259" y="424.251" type="line"/>
      <point x="440.276" y="409.517" type="line" smooth="yes"/>
      <point x="440.276" y="382.594"/>
      <point x="418.698" y="360.754"/>
      <point x="391.904" y="360.249" type="curve" smooth="yes"/>
      <point x="201.901" y="360.249" type="line"/>
      <point x="201.901" y="669.41" type="line"/>
      <point x="315.771" y="669.41" type="line"/>
      <point x="347.01" y="667.512"/>
      <point x="371.766" y="641.616"/>
      <point x="371.766" y="609.892" type="curve" smooth="yes"/>
      <point x="371.747" y="592.068" type="line"/>
      <point x="381.847" y="591.918" type="line"/>
      <point x="381.847" y="672.219" type="line"/>
      <point x="381.798" y="688.911" type="line"/>
      <point x="381.798" y="718.188" type="line"/>
      <point x="363.253" y="710.367"/>
      <point x="305.681" y="700.408"/>
      <point x="262.582" y="700" type="curve" smooth="yes"/>
      <point x="60.3519" y="700" type="line"/>
      <point x="60.5139" y="690.061" type="line"/>
      <point x="73.1639" y="690.081" type="line" smooth="yes"/>
      <point x="106.268" y="690.081"/>
      <point x="136.87" y="664.99"/>
      <point x="136.87" y="632.799" type="curve" smooth="yes"/>
      <point x="136.87" y="72.8646" type="line" smooth="yes"/>
      <point x="136.211" y="38.0296"/>
      <point x="107.814" y="9.97956"/>
      <point x="72.8119" y="9.97956" type="curve" smooth="yes"/>
      <point x="60.1619" y="10" type="line"/>
      <point x="60" y="0" type="line"/>
      <point x="544.557" y="0" type="line"/>
    </contour>
  </outline>
</glyph>
<glyph name="Eacute" format="1">
  <advance width="607"/>
  <unicode hex="00C9"/>
  <outline>
    <contour>
      <point x="248.246" y="763.971" type="line"/>
      <point x="301.869" y="790.399"/>
      <point x="355.493" y="817.828"/>
      <point x="409.116" y="849.256" type="curve"/>
      <point x="398.482" y="868.792"/>
      <point x="383.847" y="886.329"/>
      <point x="368.213" y="901.865" type="curve"/>
      <point x="325.891" y="861.234"/>
      <point x="283.568" y="816.602"/>
      <point x="241.246" y="770.971" type="curve"/>
    </contour>
    <contour>
      <point x="602.845" y="161.544" type="line"/>
      <point x="592.845" y="161.544" type="line"/>
      <point x="561.976" y="85.4061"/>
      <point x="521.283" y="30.5931"/>
      <point x="415.32" y="30.5931" type="curve" smooth="yes"/>
      <point x="201.901" y="30.5931" type="line"/>
      <point x="201.901" y="330.219" type="line"/>
      <point x="392.938" y="330.219" type="line"/>
      <point x="419.251" y="329.181"/>
      <point x="440.275" y="307.555"/>
      <point x="440.275" y="280.978" type="curve" smooth="yes"/>
      <point x="440.259" y="266.244" type="line"/>
      <point x="450.032" y="266.12" type="line"/>
      <point x="450.032" y="424.376" type="line"/>
      <point x="440.259" y="424.251" type="line"/>
      <point x="440.276" y="409.517" type="line" smooth="yes"/>
      <point x="440.276" y="382.594"/>
      <point x="418.698" y="360.754"/>
      <point x="391.904" y="360.249" type="curve" smooth="yes"/>
      <point x="201.901" y="360.249" type="line"/>
      <point x="201.901" y="669.41" type="line"/>
      <point x="315.771" y="669.41" type="line"/>
      <point x="347.01" y="667.512"/>
      <point x="371.765" y="641.616"/>
      <point x="371.765" y="609.892" type="curve" smooth="yes"/>
      <point x="371.746" y="592.068" type="line"/>
      <point x="381.846" y="591.918" type="line"/>
      <point x="381.846" y="672.219" type="line"/>
      <point x="381.797" y="688.911" type="line"/>
      <point x="381.797" y="718.188" type="line"/>
      <point x="363.253" y="710.367"/>
      <point x="305.681" y="700.408"/>
      <point x="262.582" y="700" type="curve" smooth="yes"/>
      <point x="60.3519" y="700" type="line"/>
      <point x="60.5139" y="690.061" type="line"/>
      <point x="73.1639" y="690.081" type="line" smooth="yes"/>
      <point x="106.268" y="690.081"/>
      <point x="136.87" y="664.99"/>
      <point x="136.87" y="632.799" type="curve" smooth="yes"/>
      <point x="136.87" y="72.8646" type="line" smooth="yes"/>
      <point x="136.211" y="38.0296"/>
      <point x="107.814" y="9.97955"/>
      <point x="72.8119" y="9.97955" type="curve" smooth="yes"/>
      <point x="60.1619" y="10" type="line"/>
      <point x="60" y="0" type="line"/>
      <point x="544.557" y="0" type="line"/>
    </contour>
  </outline>
</glyph>
<glyph name="Idieresis" format="1">
  <advance width="393"/>
  <unicode hex="00CF"/>
  <outline>
    <contour>
      <point x="169.243" y="803.174" type="curve" smooth="yes"/>
      <point x="169.243" y="824.757"/>
      <point x="151.748" y="842.253"/>
      <point x="130.165" y="842.253" type="curve" smooth="yes"/>
      <point x="108.582" y="842.253"/>
      <point x="91.0869" y="824.757"/>
      <point x="91.0869" y="803.174" type="curve" smooth="yes"/>
      <point x="91.0869" y="781.591"/>
      <point x="108.582" y="764.096"/>
      <point x="130.165" y="764.096" type="curve" smooth="yes"/>
      <point x="151.748" y="764.096"/>
      <point x="169.243" y="781.591"/>
    </contour>
    <contour>
      <point x="357.617" y="803.174" type="curve" smooth="yes"/>
      <point x="357.617" y="824.757"/>
      <point x="340.122" y="842.253"/>
      <point x="318.539" y="842.253" type="curve" smooth="yes"/>
      <point x="296.956" y="842.253"/>
      <point x="279.461" y="824.757"/>
      <point x="279.461" y="803.174" type="curve" smooth="yes"/>
      <point x="279.461" y="781.591"/>
      <point x="296.956" y="764.096"/>
      <point x="318.539" y="764.096" type="curve" smooth="yes"/>
      <point x="340.122" y="764.096"/>
      <point x="357.617" y="781.591"/>
    </contour>
    <contour>
      <point x="256.984" y="619.766" type="line" smooth="yes"/>
      <point x="257.571" y="669.914"/>
      <point x="275.731" y="700.581"/>
      <point x="335.671" y="710.06" type="curve"/>
      <point x="333.833" y="720.06" type="line"/>
      <point x="239.062" y="702"/>
      <point x="136.041" y="702.193"/>
      <point x="79.0615" y="696" type="curve" smooth="yes"/>
      <point x="-13" y="686"/>
      <point x="-48" y="648"/>
      <point x="-50" y="601" type="curve" smooth="yes"/>
      <point x="-52" y="546.966"/>
      <point x="-5" y="505"/>
      <point x="56.6861" y="521.398" type="curve"/>
      <point x="56.6032" y="527.205" type="line"/>
      <point x="4.06149" y="529"/>
      <point x="-19" y="560.782"/>
      <point x="-16" y="601" type="curve" smooth="yes"/>
      <point x="-13" y="645"/>
      <point x="25.0615" y="663.325"/>
      <point x="84.9229" y="666.865" type="curve" smooth="yes"/>
      <point x="191.935" y="673.192" type="line"/>
      <point x="191.935" y="72.8639" type="line" smooth="yes"/>
      <point x="191.272" y="38.0289"/>
      <point x="162.875" y="9.97888"/>
      <point x="127.873" y="9.97888" type="curve" smooth="yes"/>
      <point x="115.223" y="9.99988" type="line"/>
      <point x="115.062" y="0" type="line"/>
      <point x="333.849" y="0" type="line"/>
      <point x="333.688" y="9.99988" type="line"/>
      <point x="321.038" y="9.97888" type="line" smooth="yes"/>
      <point x="286.036" y="9.97888"/>
      <point x="257.639" y="38.0289"/>
      <point x="256.984" y="72.8639" type="curve" smooth="yes"/>
    </contour>
  </outline>
</glyph>
<glyph name="Eth" format="1">
  <advance width="817"/>
  <unicode hex="00D0"/>
  <outline>
    <contour>
      <point x="-110" y="549.583" type="line"/>
      <point x="-77" y="611.535"/>
      <point x="-37" y="662.175"/>
      <point x="136.862" y="669.453" type="curve"/>
      <point x="136.862" y="365.016" type="line"/>
      <point x="60" y="365.016" type="line"/>
      <point x="60" y="335.016" type="line"/>
      <point x="136.862" y="335.016" type="line"/>
      <point x="136.862" y="67.2528" type="line"/>
      <point x="133.425" y="35.0937"/>
      <point x="106.244" y="10.0369"/>
      <point x="73.163" y="10.0369" type="curve" smooth="yes"/>
      <point x="60.513" y="10.0569" type="line"/>
      <point x="60.351" y="0.0569058" type="line"/>
      <point x="398.536" y="0" type="line" smooth="yes"/>
      <point x="612.129" y="0"/>
      <point x="757.678" y="139.879"/>
      <point x="757.678" y="350.054" type="curve" smooth="yes"/>
      <point x="757.678" y="559.811"/>
      <point x="612.08" y="695.112"/>
      <point x="398.536" y="699.706" type="curve" smooth="yes"/>
      <point x="306.357" y="701.689"/>
      <point x="229.121" y="703.976"/>
      <point x="164.511" y="702.508" type="curve" smooth="yes"/>
      <point x="1.07199" y="698.794"/>
      <point x="-82" y="671.051"/>
      <point x="-121" y="553.583" type="curve"/>
    </contour>
    <contour>
      <point x="201.983" y="335.016" type="line"/>
      <point x="370" y="335.016" type="line"/>
      <point x="370" y="365.016" type="line"/>
      <point x="201.983" y="365.016" type="line"/>
      <point x="201.983" y="670.288" type="line"/>
      <point x="398.536" y="669.323" type="line" smooth="yes"/>
      <point x="569.94" y="669.323"/>
      <point x="682.678" y="541.615"/>
      <point x="682.678" y="350.054" type="curve" smooth="yes"/>
      <point x="682.678" y="157.913"/>
      <point x="568.94" y="29.8188"/>
      <point x="398.536" y="29.8188" type="curve" smooth="yes"/>
      <point x="201.983" y="29.8302" type="line"/>
    </contour>
  </outline>
</glyph>
<glyph name="Ntilde" format="1">
  <advance width="841"/>
  <unicode hex="00D1"/>
  <outline>
    <contour>
      <point x="561.534" y="842.516" type="line"/>
      <point x="555.854" y="793.792"/>
      <point x="531.002" y="763.929"/>
      <point x="496.133" y="763.929" type="curve" smooth="yes"/>
      <point x="453.135" y="763.929"/>
      <point x="407.949" y="807.729"/>
      <point x="375.695" y="807.729" type="curve" smooth="yes"/>
      <point x="349.979" y="807.729"/>
      <point x="332.636" y="794.696"/>
      <point x="321.497" y="767" type="curve"/>
      <point x="311.497" y="767" type="line"/>
      <point x="318.937" y="819.532"/>
      <point x="343.332" y="851.729"/>
      <point x="375.695" y="851.729" type="curve" smooth="yes"/>
      <point x="420.942" y="851.729"/>
      <point x="461.823" y="808.929"/>
      <point x="496.133" y="808.929" type="curve" smooth="yes"/>
      <point x="524.374" y="808.929"/>
      <point x="542.103" y="819.677"/>
      <point x="551.534" y="842.516" type="curve"/>
    </contour>
    <contour>
      <point x="1050" y="-142" type="line"/>
      <point x="888.435" y="-173"/>
      <point x="787.502" y="-14"/>
      <point x="715.983" y="65.4648" type="curve"/>
      <point x="715.983" y="630.257" type="line"/>
      <point x="717.042" y="663.449"/>
      <point x="744.236" y="690.044"/>
      <point x="777.696" y="690.04" type="curve" smooth="yes"/>
      <point x="796.152" y="690.021" type="line"/>
      <point x="796.306" y="700.02" type="line"/>
      <point x="590.233" y="700.02" type="line"/>
      <point x="590.387" y="690.02" type="line"/>
      <point x="608.841" y="690.039" type="line" smooth="yes"/>
      <point x="642.579" y="690.043"/>
      <point x="669.944" y="663.006"/>
      <point x="670.575" y="629.432" type="curve" smooth="yes"/>
      <point x="670.575" y="115.89" type="line"/>
      <point x="167.217" y="675.669" type="line" smooth="yes"/>
      <point x="77.3918" y="775.55"/>
      <point x="-28" y="881.263"/>
      <point x="-188" y="814.045" type="curve"/>
      <point x="-184" y="803.977" type="line"/>
      <point x="-34" y="847.525"/>
      <point x="66.9108" y="692.002"/>
      <point x="125.344" y="620.313" type="curve"/>
      <point x="125.344" y="70.5446" type="line" smooth="yes"/>
      <point x="124.689" y="36.9929"/>
      <point x="97.331" y="9.9815"/>
      <point x="63.6124" y="9.9815" type="curve" smooth="yes"/>
      <point x="45.1544" y="10" type="line"/>
      <point x="44.9994" y="0" type="line"/>
      <point x="250.986" y="0" type="line"/>
      <point x="250.832" y="10" type="line"/>
      <point x="232.371" y="9.9815" type="line" smooth="yes"/>
      <point x="198.9" y="9.9815"/>
      <point x="171.696" y="36.6013"/>
      <point x="170.656" y="69.8134" type="curve"/>
      <point x="170.656" y="569.946" type="line"/>
      <point x="698.081" y="-14" type="line" smooth="yes"/>
      <point x="788.057" y="-113"/>
      <point x="892.903" y="-203"/>
      <point x="1053.82" y="-152" type="curve"/>
    </contour>
  </outline>
</glyph>
<glyph name="Oacute" format="1">
  <advance width="929"/>
  <unicode hex="00D3"/>
  <outline>
    <contour>
      <point x="468.932" y="763.971" type="line"/>
      <point x="522.555" y="790.399"/>
      <point x="576.179" y="817.828"/>
      <point x="629.802" y="849.256" type="curve"/>
      <point x="619.168" y="868.792"/>
      <point x="604.533" y="886.329"/>
      <point x="588.899" y="901.865" type="curve"/>
      <point x="546.577" y="861.234"/>
      <point x="504.254" y="816.602"/>
      <point x="461.932" y="770.971" type="curve"/>
    </contour>
    <contour>
      <point x="286.834" y="469.041" type="line"/>
      <point x="272" y="560"/>
      <point x="349" y="684"/>
      <point x="515" y="684" type="curve" smooth="yes"/>
      <point x="700" y="684"/>
      <point x="792" y="531"/>
      <point x="792" y="363" type="curve" smooth="yes"/>
      <point x="792" y="154"/>
      <point x="656" y="16"/>
      <point x="464" y="16" type="curve" smooth="yes"/>
      <point x="280" y="16"/>
      <point x="137" y="143"/>
      <point x="137" y="375" type="curve" smooth="yes"/>
      <point x="137" y="479"/>
      <point x="165" y="609"/>
      <point x="258.903" y="670.769" type="curve"/>
      <point x="252.903" y="679.769" type="line"/>
      <point x="129" y="617"/>
      <point x="60" y="502"/>
      <point x="60" y="360" type="curve" smooth="yes"/>
      <point x="60" y="136"/>
      <point x="236" y="-14"/>
      <point x="466" y="-14" type="curve" smooth="yes"/>
      <point x="698" y="-14"/>
      <point x="869" y="138"/>
      <point x="869" y="361" type="curve" smooth="yes"/>
      <point x="869" y="558"/>
      <point x="731" y="714"/>
      <point x="523" y="714" type="curve" smooth="yes"/>
      <point x="314" y="714"/>
      <point x="259" y="558"/>
      <point x="276.834" y="467.041" type="curve"/>
    </contour>
  </outline>
</glyph>
<glyph name="Otilde" format="1">
  <advance width="929"/>
  <unicode hex="00D5"/>
  <outline>
    <contour>
      <point x="604.638" y="842.516" type="line"/>
      <point x="598.958" y="793.792"/>
      <point x="574.106" y="763.929"/>
      <point x="539.237" y="763.929" type="curve" smooth="yes"/>
      <point x="496.239" y="763.929"/>
      <point x="451.053" y="807.729"/>
      <point x="418.799" y="807.729" type="curve" smooth="yes"/>
      <point x="393.083" y="807.729"/>
      <point x="375.74" y="794.696"/>
      <point x="364.601" y="767" type="curve"/>
      <point x="354.601" y="767" type="line"/>
      <point x="362.041" y="819.532"/>
      <point x="386.436" y="851.729"/>
      <point x="418.799" y="851.729" type="curve" smooth="yes"/>
      <point x="464.046" y="851.729"/>
      <point x="504.927" y="808.929"/>
      <point x="539.237" y="808.929" type="curve" smooth="yes"/>
      <point x="567.478" y="808.929"/>
      <point x="585.207" y="819.677"/>
      <point x="594.638" y="842.516" type="curve"/>
    </contour>
    <contour>
      <point x="286.834" y="469.041" type="line"/>
      <point x="272" y="560"/>
      <point x="349" y="684"/>
      <point x="515" y="684" type="curve" smooth="yes"/>
      <point x="700" y="684"/>
      <point x="792" y="531"/>
      <point x="792" y="363" type="curve" smooth="yes"/>
      <point x="792" y="154"/>
      <point x="656" y="16"/>
      <point x="464" y="16" type="curve" smooth="yes"/>
      <point x="280" y="16"/>
      <point x="137" y="143"/>
      <point x="137" y="375" type="curve" smooth="yes"/>
      <point x="137" y="479"/>
      <point x="165" y="609"/>
      <point x="258.903" y="670.769" type="curve"/>
      <point x="252.903" y="679.769" type="line"/>
      <point x="129" y="617"/>
      <point x="60" y="502"/>
      <point x="60" y="360" type="curve" smooth="yes"/>
      <point x="60" y="136"/>
      <point x="236" y="-14"/>
      <point x="466" y="-14" type="curve" smooth="yes"/>
      <point x="698" y="-14"/>
      <point x="869" y="138"/>
      <point x="869" y="361" type="curve" smooth="yes"/>
      <point x="869" y="558"/>
      <point x="731" y="714"/>
      <point x="523" y="714" type="curve" smooth="yes"/>
      <point x="314" y="714"/>
      <point x="259" y="558"/>
      <point x="276.834" y="467.041" type="curve"/>
    </contour>
  </outline>
</glyph>
<glyph name="Uacute" format="1">
  <advance width="783"/>
  <unicode hex="00DA"/>
  <outline>
    <contour>
      <point x="421.573" y="763.971" type="line"/>
      <point x="475.196" y="790.399"/>
      <point x="528.82" y="817.828"/>
      <point x="582.443" y="849.256" type="curve"/>
      <point x="571.809" y="868.792"/>
      <point x="557.174" y="886.329"/>
      <point x="541.54" y="901.865" type="curve"/>
      <point x="499.218" y="861.234"/>
      <point x="456.895" y="816.602"/>
      <point x="414.573" y="770.971" type="curve"/>
    </contour>
    <contour>
      <point x="619.31" y="247.399" type="line" smooth="yes"/>
      <point x="619.152" y="109.457"/>
      <point x="530.011" y="17.4954"/>
      <point x="396.423" y="17.4954" type="curve" smooth="yes"/>
      <point x="269.022" y="17.4954"/>
      <point x="184.088" y="114.614"/>
      <point x="184.088" y="260.292" type="curve" smooth="yes"/>
      <point x="184.088" y="642" type="line"/>
      <point x="185.312" y="669.975"/>
      <point x="208.433" y="690.017"/>
      <point x="236.814" y="690.017" type="curve" smooth="yes"/>
      <point x="253.11" y="690" type="line"/>
      <point x="253.11" y="700" type="line"/>
      <point x="50" y="700" type="line"/>
      <point x="50" y="690" type="line"/>
      <point x="66.2945" y="690.017" type="line" smooth="yes"/>
      <point x="95.1832" y="690.017"/>
      <point x="118.619" y="669.255"/>
      <point x="119.161" y="640.499" type="curve" smooth="yes"/>
      <point x="119.161" y="245.596" type="line" smooth="yes"/>
      <point x="119.097" y="89.8385"/>
      <point x="230.028" y="-14"/>
      <point x="396.423" y="-14" type="curve" smooth="yes"/>
      <point x="558.153" y="-14"/>
      <point x="665.959" y="90.5365"/>
      <point x="665.973" y="247.34" type="curve" smooth="yes"/>
      <point x="665.973" y="580.014" type="line" smooth="yes"/>
      <point x="666.018" y="766.989"/>
      <point x="761.205" y="861.639"/>
      <point x="903.969" y="861.639" type="curve"/>
      <point x="903.969" y="871.639" type="line"/>
      <point x="733.243" y="878.613"/>
      <point x="619.377" y="779.438"/>
      <point x="619.31" y="578.702" type="curve" smooth="yes"/>
    </contour>
  </outline>
</glyph>
<glyph name="adieresis" format="1">
  <advance width="712"/>
  <unicode hex="00E4"/>
  <outline>
    <contour>
      <point x="300.775" y="803.173" type="curve" smooth="yes"/>
      <point x="300.775" y="824.756"/>
      <point x="283.28" y="842.252"/>
      <point x="261.697" y="842.252" type="curve" smooth="yes"/>
      <point x="240.114" y="842.252"/>
      <point x="222.619" y="824.756"/>
      <point x="222.619" y="803.173" type="curve" smooth="yes"/>
      <point x="222.619" y="781.59"/>
      <point x="240.114" y="764.095"/>
      <point x="261.697" y="764.095" type="curve" smooth="yes"/>
      <point x="283.28" y="764.095"/>
      <point x="300.775" y="781.59"/>
    </contour>
    <contour>
      <point x="489.149" y="803.173" type="curve" smooth="yes"/>
      <point x="489.149" y="824.756"/>
      <point x="471.654" y="842.252"/>
      <point x="450.071" y="842.252" type="curve" smooth="yes"/>
      <point x="428.488" y="842.252"/>
      <point x="410.993" y="824.756"/>
      <point x="410.993" y="803.173" type="curve" smooth="yes"/>
      <point x="410.993" y="781.59"/>
      <point x="428.488" y="764.095"/>
      <point x="450.071" y="764.095" type="curve" smooth="yes"/>
      <point x="471.654" y="764.095"/>
      <point x="489.149" y="781.59"/>
    </contour>
    <contour>
      <point x="359.414" y="714" type="line"/>
      <point x="350.408" y="714" type="line"/>
      <point x="350.408" y="692.013"/>
      <point x="313.382" y="611"/>
      <point x="313.382" y="611" type="curve"/>
      <point x="86.605" y="72.8926" type="line"/>
      <point x="66.381" y="28.4303"/>
      <point x="29.4102" y="9.99921"/>
      <point x="-1" y="9.99921" type="curve" smooth="yes"/>
      <point x="-10" y="9.99921" type="line"/>
      <point x="-10" y="0" type="line"/>
      <point x="191.277" y="0" type="line"/>
      <point x="191.277" y="9.90721" type="line"/>
      <point x="182.485" y="9.90721" type="line" smooth="yes"/>
      <point x="156.8" y="9.90721"/>
      <point x="130.156" y="32.4324"/>
      <point x="144.266" y="72.071" type="curve"/>
      <point x="211.257" y="242.999" type="line"/>
      <point x="480.604" y="242.999" type="line"/>
      <point x="544.567" y="72.68" type="line" smooth="yes"/>
      <point x="559.169" y="32.663"/>
      <point x="532.384" y="9.91"/>
      <point x="506.568" y="9.91" type="curve" smooth="yes"/>
      <point x="497.776" y="9.91" type="line"/>
      <point x="497.776" y="0" type="line"/>
      <point x="722.956" y="0" type="line"/>
      <point x="722.956" y="9.999" type="line"/>
      <point x="714.593" y="9.999" type="line" smooth="yes"/>
      <point x="683.958" y="9.999"/>
      <point x="646.965" y="28.4486"/>
      <point x="626.748" y="72.9606" type="curve"/>
    </contour>
    <contour>
      <point x="223.015" y="272.999" type="line"/>
      <point x="348.805" y="593.953" type="line"/>
      <point x="469.338" y="272.999" type="line"/>
    </contour>
  </outline>
</glyph>
<glyph name="aring" format="1">
  <advance width="712"/>
  <unicode hex="00E5"/>
  <outline>
    <contour>
      <point x="262.287" y="839.319" type="curve" smooth="yes"/>
      <point x="262.287" y="795.466"/>
      <point x="302.717" y="764.356"/>
      <point x="356.09" y="764.356" type="curve" smooth="yes"/>
      <point x="409.464" y="764.356"/>
      <point x="449.894" y="795.466"/>
      <point x="449.894" y="839.319" type="curve" smooth="yes"/>
      <point x="449.894" y="886.48"/>
      <point x="409.464" y="914.283"/>
      <point x="356.09" y="914.283" type="curve" smooth="yes"/>
      <point x="302.717" y="914.283"/>
      <point x="262.287" y="883.172"/>
    </contour>
    <contour>
      <point x="405.096" y="839.319" type="curve" smooth="yes"/>
      <point x="405.096" y="802.111"/>
      <point x="383.74" y="781.512"/>
      <point x="356.091" y="781.512" type="curve" smooth="yes"/>
      <point x="328.441" y="781.512"/>
      <point x="307.085" y="802.111"/>
      <point x="307.085" y="839.319" type="curve" smooth="yes"/>
      <point x="307.085" y="876.528"/>
      <point x="328.441" y="897.127"/>
      <point x="356.091" y="897.127" type="curve" smooth="yes"/>
      <point x="383.74" y="897.127"/>
      <point x="405.096" y="876.528"/>
    </contour>
    <contour>
      <point x="359.414" y="714" type="line"/>
      <point x="350.408" y="714" type="line"/>
      <point x="350.408" y="692.013"/>
      <point x="313.382" y="611"/>
      <point x="313.382" y="611" type="curve"/>
      <point x="86.605" y="72.8926" type="line"/>
      <point x="66.381" y="28.4303"/>
      <point x="29.4102" y="9.9992"/>
      <point x="-1" y="9.9992" type="curve" smooth="yes"/>
      <point x="-10" y="9.9992" type="line"/>
      <point x="-10" y="0" type="line"/>
      <point x="191.278" y="0" type="line"/>
      <point x="191.278" y="9.9072" type="line"/>
      <point x="182.486" y="9.9072" type="line" smooth="yes"/>
      <point x="156.8" y="9.9072"/>
      <point x="130.156" y="32.4324"/>
      <point x="144.266" y="72.071" type="curve"/>
      <point x="211.257" y="242.999" type="line"/>
      <point x="480.604" y="242.999" type="line"/>
      <point x="544.567" y="72.68" type="line" smooth="yes"/>
      <point x="559.169" y="32.663"/>
      <point x="532.384" y="9.90999"/>
      <point x="506.568" y="9.90999" type="curve" smooth="yes"/>
      <point x="497.776" y="9.90999" type="line"/>
      <point x="497.776" y="0" type="line"/>
      <point x="722.956" y="0" type="line"/>
      <point x="722.956" y="9.99899" type="line"/>
      <point x="714.593" y="9.99899" type="line" smooth="yes"/>
      <point x="683.958" y="9.99899"/>
      <point x="646.965" y="28.4486"/>
      <point x="626.748" y="72.9606" type="curve"/>
    </contour>
    <contour>
      <point x="223.015" y="272.999" type="line"/>
      <point x="348.805" y="593.953" type="line"/>
      <point x="469.338" y="272.999" type="line"/>
    </contour>
  </outline>
</glyph>
<glyph name="ecircumflex" format="1">
  <advance width="577"/>
  <unicode hex="00EA"/>
  <outline>
    <contour>
      <point x="291.776" y="889.736" type="line"/>
      <point x="301.776" y="889.736" type="line"/>
      <point x="415.951" y="770.884" type="line"/>
      <point x="409.951" y="762.884" type="line"/>
      <point x="296.306" y="828.979" type="line"/>
      <point x="191.646" y="762.979" type="line"/>
      <point x="185.646" y="770.979" type="line"/>
    </contour>
    <contour>
      <point x="522.845" y="161.543" type="line"/>
      <point x="491.976" y="85.4049"/>
      <point x="451.283" y="30.5919"/>
      <point x="345.32" y="30.5919" type="curve" smooth="yes"/>
      <point x="201.901" y="30.5919" type="line"/>
      <point x="201.901" y="330.218" type="line"/>
      <point x="371.938" y="330.218" type="line"/>
      <point x="398.251" y="329.18"/>
      <point x="419.275" y="307.554"/>
      <point x="419.275" y="280.977" type="curve" smooth="yes"/>
      <point x="419.259" y="266.243" type="line"/>
      <point x="429.032" y="266.119" type="line"/>
      <point x="429.032" y="424.375" type="line"/>
      <point x="419.259" y="424.25" type="line"/>
      <point x="419.276" y="409.516" type="line" smooth="yes"/>
      <point x="419.276" y="382.593"/>
      <point x="397.698" y="360.753"/>
      <point x="370.904" y="360.248" type="curve" smooth="yes"/>
      <point x="201.901" y="360.248" type="line"/>
      <point x="201.901" y="669.409" type="line"/>
      <point x="405.771" y="669.409" type="line"/>
      <point x="437.01" y="667.511"/>
      <point x="461.765" y="641.614"/>
      <point x="461.765" y="609.891" type="curve" smooth="yes"/>
      <point x="461.746" y="592.067" type="line"/>
      <point x="471.846" y="591.917" type="line"/>
      <point x="471.846" y="672.218" type="line"/>
      <point x="471.797" y="688.91" type="line"/>
      <point x="471.797" y="718.187" type="line"/>
      <point x="453.253" y="710.366"/>
      <point x="395.681" y="700.407"/>
      <point x="352.582" y="700" type="curve" smooth="yes"/>
      <point x="60.3515" y="700" type="line"/>
      <point x="60.5135" y="690.06" type="line"/>
      <point x="73.1635" y="690.08" type="line" smooth="yes"/>
      <point x="106.267" y="690.08"/>
      <point x="136.869" y="664.989"/>
      <point x="136.869" y="632.798" type="curve" smooth="yes"/>
      <point x="136.869" y="72.8635" type="line" smooth="yes"/>
      <point x="136.21" y="38.0285"/>
      <point x="107.813" y="9.97851"/>
      <point x="72.8115" y="9.97851" type="curve" smooth="yes"/>
      <point x="60.1615" y="9.99951" type="line"/>
      <point x="60" y="0" type="line"/>
      <point x="474.558" y="0" type="line"/>
      <point x="532.845" y="161.543" type="line"/>
    </contour>
  </outline>
</glyph>
<glyph name="iacute" format="1">
  <advance width="338"/>
  <unicode hex="00ED"/>
  <outline>
    <contour>
      <point x="169.507" y="763.971" type="line"/>
      <point x="223.13" y="790.399"/>
      <point x="276.754" y="817.828"/>
      <point x="330.377" y="849.256" type="curve"/>
      <point x="319.743" y="868.792"/>
      <point x="305.108" y="886.329"/>
      <point x="289.474" y="901.865" type="curve"/>
      <point x="247.152" y="861.234"/>
      <point x="204.829" y="816.602"/>
      <point x="162.507" y="770.971" type="curve"/>
    </contour>
    <contour>
      <point x="278.626" y="10" type="line"/>
      <point x="265.976" y="9.979" type="line" smooth="yes"/>
      <point x="230.974" y="9.979"/>
      <point x="202.577" y="38.029"/>
      <point x="201.922" y="72.864" type="curve" smooth="yes"/>
      <point x="201.922" y="627.818" type="line" smooth="yes"/>
      <point x="202.9" y="662.363"/>
      <point x="231.167" y="690.08"/>
      <point x="265.959" y="690.08" type="curve" smooth="yes"/>
      <point x="278.609" y="690.06" type="line"/>
      <point x="278.771" y="700.06" type="line"/>
      <point x="60.0161" y="700.06" type="line"/>
      <point x="60.1781" y="690.06" type="line"/>
      <point x="72.8281" y="690.08" type="line" smooth="yes"/>
      <point x="107.692" y="690.08"/>
      <point x="136.003" y="662.249"/>
      <point x="136.873" y="627.605" type="curve" smooth="yes"/>
      <point x="136.873" y="72.8635" type="line" smooth="yes"/>
      <point x="136.21" y="38.0285"/>
      <point x="107.813" y="9.97847"/>
      <point x="72.811" y="9.97847" type="curve" smooth="yes"/>
      <point x="60.161" y="9.99947" type="line"/>
      <point x="60" y="0" type="line"/>
      <point x="278.787" y="0" type="line"/>
    </contour>
  </outline>
</glyph>
<glyph name="icircumflex" format="1">
  <advance width="338"/>
  <unicode hex="00EE"/>
  <outline>
    <contour>
      <point x="164.368" y="889.735" type="line"/>
      <point x="174.368" y="889.735" type="line"/>
      <point x="288.543" y="770.883" type="line"/>
      <point x="282.543" y="762.883" type="line"/>
      <point x="168.898" y="828.979" type="line"/>
      <point x="64.238" y="762.979" type="line"/>
      <point x="58.238" y="770.979" type="line"/>
    </contour>
    <contour>
      <point x="278.626" y="9.99998" type="line"/>
      <point x="265.976" y="9.97898" type="line" smooth="yes"/>
      <point x="230.974" y="9.97898"/>
      <point x="202.577" y="38.029"/>
      <point x="201.922" y="72.864" type="curve" smooth="yes"/>
      <point x="201.922" y="627.818" type="line" smooth="yes"/>
      <point x="202.9" y="662.363"/>
      <point x="231.167" y="690.08"/>
      <point x="265.959" y="690.08" type="curve" smooth="yes"/>
      <point x="278.609" y="690.06" type="line"/>
      <point x="278.771" y="700.06" type="line"/>
      <point x="60.0161" y="700.06" type="line"/>
      <point x="60.1781" y="690.06" type="line"/>
      <point x="72.8281" y="690.08" type="line" smooth="yes"/>
      <point x="107.692" y="690.08"/>
      <point x="136.003" y="662.249"/>
      <point x="136.873" y="627.605" type="curve" smooth="yes"/>
      <point x="136.873" y="72.8635" type="line" smooth="yes"/>
      <point x="136.21" y="38.0285"/>
      <point x="107.813" y="9.97846"/>
      <point x="72.811" y="9.97846" type="curve" smooth="yes"/>
      <point x="60.161" y="9.99946" type="line"/>
      <point x="60" y="0" type="line"/>
      <point x="278.787" y="0" type="line"/>
    </contour>
  </outline>
</glyph>
<glyph name="idieresis" format="1">
  <advance width="338"/>
  <unicode hex="00EF"/>
  <outline>
    <contour>
      <point x="114.451" y="803.174" type="curve" smooth="yes"/>
      <point x="114.451" y="824.757"/>
      <point x="96.956" y="842.253"/>
      <point x="75.373" y="842.253" type="curve" smooth="yes"/>
      <point x="53.79" y="842.253"/>
      <point x="36.295" y="824.757"/>
      <point x="36.295" y="803.174" type="curve" smooth="yes"/>
      <point x="36.295" y="781.591"/>
      <point x="53.79" y="764.096"/>
      <point x="75.373" y="764.096" type="curve" smooth="yes"/>
      <point x="96.956" y="764.096"/>
      <point x="114.451" y="781.591"/>
    </contour>
    <contour>
      <point x="302.825" y="803.174" type="curve" smooth="yes"/>
      <point x="302.825" y="824.757"/>
      <point x="285.33" y="842.253"/>
      <point x="263.747" y="842.253" type="curve" smooth="yes"/>
      <point x="242.164" y="842.253"/>
      <point x="224.669" y="824.757"/>
      <point x="224.669" y="803.174" type="curve" smooth="yes"/>
      <point x="224.669" y="781.591"/>
      <point x="242.164" y="764.096"/>
      <point x="263.747" y="764.096" type="curve" smooth="yes"/>
      <point x="285.33" y="764.096"/>
      <point x="302.825" y="781.591"/>
    </contour>
    <contour>
      <point x="278.626" y="10" type="line"/>
      <point x="265.976" y="9.979" type="line" smooth="yes"/>
      <point x="230.974" y="9.979"/>
      <point x="202.577" y="38.029"/>
      <point x="201.922" y="72.864" type="curve" smooth="yes"/>
      <point x="201.922" y="627.818" type="line" smooth="yes"/>
      <point x="202.9" y="662.363"/>
      <point x="231.167" y="690.08"/>
      <point x="265.959" y="690.08" type="curve" smooth="yes"/>
      <point x="278.609" y="690.06" type="line"/>
      <point x="278.771" y="700.06" type="line"/>
      <point x="60.0161" y="700.06" type="line"/>
      <point x="60.1781" y="690.06" type="line"/>
      <point x="72.8281" y="690.08" type="line" smooth="yes"/>
      <point x="107.692" y="690.08"/>
      <point x="136.003" y="662.249"/>
      <point x="136.873" y="627.605" type="curve" smooth="yes"/>
      <point x="136.873" y="72.8635" type="line" smooth="yes"/>
      <point x="136.21" y="38.0285"/>
      <point x="107.813" y="9.97847"/>
      <point x="72.811" y="9.97847" type="curve" smooth="yes"/>
      <point x="60.161" y="9.99947" type="line"/>
      <point x="60" y="0" type="line"/>
      <point x="278.787" y="0" type="line"/>
    </contour>
  </outline>
</glyph>
<glyph name="ograve" format="1">
  <advance width="848"/>
  <unicode hex="00F2"/>
  <outline>
    <contour>
      <point x="432.432" y="771" type="line"/>
      <point x="390.11" y="817.631"/>
      <point x="347.787" y="861.263"/>
      <point x="305.465" y="901.894" type="curve"/>
      <point x="289.831" y="887.358"/>
      <point x="275.196" y="869.821"/>
      <point x="264.562" y="849.285" type="curve"/>
      <point x="318.185" y="817.857"/>
      <point x="371.809" y="789.428"/>
      <point x="425.432" y="764" type="curve"/>
    </contour>
    <contour>
      <point x="40" y="349.992" type="curve" smooth="yes"/>
      <point x="40" y="131.597"/>
      <point x="197.406" y="-14"/>
      <point x="424.432" y="-14" type="curve" smooth="yes"/>
      <point x="651.459" y="-14"/>
      <point x="808.865" y="131.597"/>
      <point x="808.865" y="349.992" type="curve" smooth="yes"/>
      <point x="808.865" y="568.397"/>
      <point x="651.459" y="714"/>
      <point x="424.432" y="714" type="curve" smooth="yes"/>
      <point x="197.406" y="714"/>
      <point x="40" y="568.397"/>
    </contour>
    <contour>
      <point x="117.403" y="349.992" type="curve" smooth="yes"/>
      <point x="117.403" y="550.442"/>
      <point x="240.408" y="684.075"/>
      <point x="424.432" y="684.075" type="curve" smooth="yes"/>
      <point x="608.457" y="684.075"/>
      <point x="731.462" y="550.442"/>
      <point x="731.462" y="349.992" type="curve" smooth="yes"/>
      <point x="731.462" y="149.552"/>
      <point x="608.457" y="15.925"/>
      <point x="424.432" y="15.925" type="curve" smooth="yes"/>
      <point x="240.408" y="15.925"/>
      <point x="117.403" y="149.552"/>
    </contour>
  </outline>
</glyph>
<glyph name="oacute" format="1">
  <advance width="848"/>
  <unicode hex="00F3"/>
  <outline>
    <contour>
      <point x="425.364" y="763.971" type="line"/>
      <point x="478.987" y="790.399"/>
      <point x="532.611" y="817.828"/>
      <point x="586.234" y="849.256" type="curve"/>
      <point x="575.6" y="868.792"/>
      <point x="560.965" y="886.329"/>
      <point x="545.331" y="901.865" type="curve"/>
      <point x="503.009" y="861.234"/>
      <point x="460.686" y="816.602"/>
      <point x="418.364" y="770.971" type="curve"/>
    </contour>
    <contour>
      <point x="40" y="349.992" type="curve" smooth="yes"/>
      <point x="40" y="131.597"/>
      <point x="197.406" y="-14"/>
      <point x="424.432" y="-14" type="curve" smooth="yes"/>
      <point x="651.459" y="-14"/>
      <point x="808.865" y="131.597"/>
      <point x="808.865" y="349.992" type="curve" smooth="yes"/>
      <point x="808.865" y="568.397"/>
      <point x="651.459" y="714"/>
      <point x="424.432" y="714" type="curve" smooth="yes"/>
      <point x="197.406" y="714"/>
      <point x="40" y="568.397"/>
    </contour>
    <contour>
      <point x="117.403" y="349.992" type="curve" smooth="yes"/>
      <point x="117.403" y="550.442"/>
      <point x="240.408" y="684.075"/>
      <point x="424.432" y="684.075" type="curve" smooth="yes"/>
      <point x="608.457" y="684.075"/>
      <point x="731.462" y="550.442"/>
      <point x="731.462" y="349.992" type="curve" smooth="yes"/>
      <point x="731.462" y="149.552"/>
      <point x="608.457" y="15.925"/>
      <point x="424.432" y="15.925" type="curve" smooth="yes"/>
      <point x="240.408" y="15.925"/>
      <point x="117.403" y="149.552"/>
    </contour>
  </outline>
</glyph>
<glyph name="ugrave" format="1">
  <advance width="785"/>
  <unicode hex="00F9"/>
  <outline>
    <contour>
      <point x="408.641" y="771" type="line"/>
      <point x="366.319" y="817.631"/>
      <point x="323.996" y="861.263"/>
      <point x="281.674" y="901.894" type="curve"/>
      <point x="266.04" y="887.358"/>
      <point x="251.405" y="869.821"/>
      <point x="240.771" y="849.285" type="curve"/>
      <point x="294.394" y="817.857"/>
      <point x="348.018" y="789.428"/>
      <point x="401.641" y="764" type="curve"/>
    </contour>
    <contour>
      <point x="550.182" y="700" type="line"/>
      <point x="550.182" y="690" type="line"/>
      <point x="566.477" y="690.017" type="line" smooth="yes"/>
      <point x="594.901" y="690.017"/>
      <point x="618.046" y="669.918"/>
      <point x="619.3" y="641.881" type="curve"/>
      <point x="619.3" y="247.399" type="line" smooth="yes"/>
      <point x="619.069" y="109.457"/>
      <point x="530.011" y="17.4953"/>
      <point x="396.423" y="17.4953" type="curve" smooth="yes"/>
      <point x="269.022" y="17.4953"/>
      <point x="184.088" y="114.614"/>
      <point x="184.088" y="260.292" type="curve" smooth="yes"/>
      <point x="184.088" y="642" type="line"/>
      <point x="185.312" y="669.975"/>
      <point x="208.433" y="690.018"/>
      <point x="236.814" y="690.018" type="curve" smooth="yes"/>
      <point x="253.11" y="690" type="line"/>
      <point x="253.11" y="700" type="line"/>
      <point x="50" y="700" type="line"/>
      <point x="50" y="690" type="line"/>
      <point x="66.295" y="690.018" type="line" smooth="yes"/>
      <point x="95.183" y="690.018"/>
      <point x="118.619" y="669.256"/>
      <point x="119.161" y="640.5" type="curve" smooth="yes"/>
      <point x="119.161" y="245.597" type="line" smooth="yes"/>
      <point x="119.097" y="89.8388"/>
      <point x="230.028" y="-14"/>
      <point x="396.423" y="-14" type="curve" smooth="yes"/>
      <point x="558.153" y="-14"/>
      <point x="665.973" y="90.5368"/>
      <point x="665.973" y="247.341" type="curve" smooth="yes"/>
      <point x="665.973" y="642.792" type="line"/>
      <point x="667.712" y="670.352"/>
      <point x="690.664" y="690.017"/>
      <point x="718.777" y="690.017" type="curve" smooth="yes"/>
      <point x="735.073" y="690" type="line"/>
      <point x="735.073" y="700" type="line"/>
    </contour>
  </outline>
</glyph>
<glyph name="uacute" format="1">
  <advance width="785"/>
  <unicode hex="00FA"/>
  <outline>
    <contour>
      <point x="401.573" y="763.971" type="line"/>
      <point x="455.196" y="790.399"/>
      <point x="508.82" y="817.828"/>
      <point x="562.443" y="849.256" type="curve"/>
      <point x="551.809" y="868.792"/>
      <point x="537.174" y="886.329"/>
      <point x="521.54" y="901.865" type="curve"/>
      <point x="479.218" y="861.234"/>
      <point x="436.895" y="816.602"/>
      <point x="394.573" y="770.971" type="curve"/>
    </contour>
    <contour>
      <point x="550.182" y="700" type="line"/>
      <point x="550.182" y="690" type="line"/>
      <point x="566.477" y="690.017" type="line" smooth="yes"/>
      <point x="594.901" y="690.017"/>
      <point x="618.046" y="669.918"/>
      <point x="619.3" y="641.881" type="curve"/>
      <point x="619.3" y="247.399" type="line" smooth="yes"/>
      <point x="619.069" y="109.457"/>
      <point x="530.011" y="17.4953"/>
      <point x="396.423" y="17.4953" type="curve" smooth="yes"/>
      <point x="269.022" y="17.4953"/>
      <point x="184.088" y="114.614"/>
      <point x="184.088" y="260.292" type="curve" smooth="yes"/>
      <point x="184.088" y="642" type="line"/>
      <point x="185.312" y="669.975"/>
      <point x="208.433" y="690.018"/>
      <point x="236.814" y="690.018" type="curve" smooth="yes"/>
      <point x="253.11" y="690" type="line"/>
      <point x="253.11" y="700" type="line"/>
      <point x="50" y="700" type="line"/>
      <point x="50" y="690" type="line"/>
      <point x="66.295" y="690.018" type="line" smooth="yes"/>
      <point x="95.183" y="690.018"/>
      <point x="118.619" y="669.256"/>
      <point x="119.161" y="640.5" type="curve" smooth="yes"/>
      <point x="119.161" y="245.597" type="line" smooth="yes"/>
      <point x="119.097" y="89.8388"/>
      <point x="230.028" y="-14"/>
      <point x="396.423" y="-14" type="curve" smooth="yes"/>
      <point x="558.153" y="-14"/>
      <point x="665.973" y="90.5368"/>
      <point x="665.973" y="247.341" type="curve" smooth="yes"/>
      <point x="665.973" y="642.792" type="line"/>
      <point x="667.712" y="670.352"/>
      <point x="690.664" y="690.017"/>
      <point x="718.777" y="690.017" type="curve" smooth="yes"/>
      <point x="735.073" y="690" type="line"/>
      <point x="735.073" y="700" type="line"/>
    </contour>
  </outline>
</glyph>
<glyph name="ucircumflex" format="1">
  <advance width="785"/>
  <unicode hex="00FB"/>
  <outline>
    <contour>
      <point x="396.434" y="889.736" type="line"/>
      <point x="406.434" y="889.736" type="line"/>
      <point x="520.609" y="770.884" type="line"/>
      <point x="514.609" y="762.884" type="line"/>
      <point x="400.964" y="828.98" type="line"/>
      <point x="296.304" y="762.98" type="line"/>
      <point x="290.304" y="770.98" type="line"/>
    </contour>
    <contour>
      <point x="550.182" y="700" type="line"/>
      <point x="550.182" y="690" type="line"/>
      <point x="566.477" y="690.017" type="line" smooth="yes"/>
      <point x="594.901" y="690.017"/>
      <point x="618.046" y="669.918"/>
      <point x="619.3" y="641.881" type="curve"/>
      <point x="619.3" y="247.399" type="line" smooth="yes"/>
      <point x="619.069" y="109.457"/>
      <point x="530.011" y="17.4953"/>
      <point x="396.423" y="17.4953" type="curve" smooth="yes"/>
      <point x="269.022" y="17.4953"/>
      <point x="184.088" y="114.614"/>
      <point x="184.088" y="260.292" type="curve" smooth="yes"/>
      <point x="184.088" y="642" type="line"/>
      <point x="185.312" y="669.975"/>
      <point x="208.433" y="690.018"/>
      <point x="236.814" y="690.018" type="curve" smooth="yes"/>
      <point x="253.11" y="690" type="line"/>
      <point x="253.11" y="700" type="line"/>
      <point x="50" y="700" type="line"/>
      <point x="50" y="690" type="line"/>
      <point x="66.295" y="690.018" type="line" smooth="yes"/>
      <point x="95.183" y="690.018"/>
      <point x="118.619" y="669.256"/>
      <point x="119.161" y="640.5" type="curve" smooth="yes"/>
      <point x="119.161" y="245.597" type="line" smooth="yes"/>
      <point x="119.097" y="89.8388"/>
      <point x="230.028" y="-14"/>
      <point x="396.423" y="-14" type="curve" smooth="yes"/>
      <point x="558.153" y="-14"/>
      <point x="665.973" y="90.5368"/>
      <point x="665.973" y="247.341" type="curve" smooth="yes"/>
      <point x="665.973" y="642.792" type="line"/>
      <point x="667.712" y="670.352"/>
      <point x="690.664" y="690.017"/>
      <point x="718.777" y="690.017" type="curve" smooth="yes"/>
      <point x="735.073" y="690" type="line"/>
      <point x="735.073" y="700" type="line"/>
    </contour>
  </outline>
</glyph>
<glyph name="ydieresis" format="1">
  <advance width="661"/>
  <unicode hex="00FF"/>
  <outline>
    <contour>
      <point x="288.354" y="803.174" type="curve" smooth="yes"/>
      <point x="288.354" y="824.757"/>
      <point x="270.859" y="842.253"/>
      <point x="249.276" y="842.253" type="curve" smooth="yes"/>
      <point x="227.693" y="842.253"/>
      <point x="210.198" y="824.757"/>
      <point x="210.198" y="803.174" type="curve" smooth="yes"/>
      <point x="210.198" y="781.591"/>
      <point x="227.693" y="764.096"/>
      <point x="249.276" y="764.096" type="curve" smooth="yes"/>
      <point x="270.859" y="764.096"/>
      <point x="288.354" y="781.591"/>
    </contour>
    <contour>
      <point x="476.728" y="803.174" type="curve" smooth="yes"/>
      <point x="476.728" y="824.757"/>
      <point x="459.233" y="842.253"/>
      <point x="437.65" y="842.253" type="curve" smooth="yes"/>
      <point x="416.067" y="842.253"/>
      <point x="398.572" y="824.757"/>
      <point x="398.572" y="803.174" type="curve" smooth="yes"/>
      <point x="398.572" y="781.591"/>
      <point x="416.067" y="764.096"/>
      <point x="437.65" y="764.096" type="curve" smooth="yes"/>
      <point x="459.233" y="764.096"/>
      <point x="476.728" y="781.591"/>
    </contour>
    <contour>
      <point x="449.868" y="700.017" type="line"/>
      <point x="449.868" y="689.993" type="line"/>
      <point x="462.468" y="689.993" type="line" smooth="yes"/>
      <point x="489.414" y="689.993"/>
      <point x="513.609" y="657.132"/>
      <point x="498.051" y="628.967" type="curve" smooth="yes"/>
      <point x="497.524" y="628.04" type="line"/>
      <point x="338.151" y="348.103" type="line"/>
      <point x="188.308" y="627.953" type="line" smooth="yes"/>
      <point x="173.594" y="656.339"/>
      <point x="194.051" y="690.035"/>
      <point x="223.324" y="690.035" type="curve" smooth="yes"/>
      <point x="235.923" y="690.035" type="line"/>
      <point x="235.923" y="700" type="line"/>
      <point x="-10" y="700" type="line"/>
      <point x="-10" y="690.035" type="line"/>
      <point x="3.63199" y="690.035" type="line" smooth="yes"/>
      <point x="45.4481" y="690.035"/>
      <point x="84.8065" y="662.318"/>
      <point x="104.175" y="631.606" type="curve" smooth="yes"/>
      <point x="294.572" y="313.296" type="line"/>
      <point x="294.572" y="72.2767" type="line" smooth="yes"/>
      <point x="293.611" y="37.7145"/>
      <point x="265.337" y="9.97943"/>
      <point x="230.532" y="9.97943" type="curve" smooth="yes"/>
      <point x="217.882" y="10" type="line"/>
      <point x="217.721" y="0" type="line"/>
      <point x="436.468" y="0" type="line"/>
      <point x="436.307" y="10" type="line"/>
      <point x="423.657" y="9.97943" type="line" smooth="yes"/>
      <point x="388.655" y="9.97943"/>
      <point x="360.258" y="38.0294"/>
      <point x="359.603" y="72.8644" type="curve" smooth="yes"/>
      <point x="359.603" y="312.295" type="line"/>
      <point x="557.331" y="631.92" type="line"/>
      <point x="578.69" y="662.513"/>
      <point x="615.96" y="689.993"/>
      <point x="657.64" y="689.993" type="curve" smooth="yes"/>
      <point x="671.64" y="689.993" type="line"/>
      <point x="671.64" y="700.017" type="line"/>
    </contour>
  </outline>
</glyph>
<glyph name="abreve" format="1">
  <advance width="712"/>
  <unicode hex="0103"/>
  <outline>
    <contour>
      <point x="449.112" y="867.732" type="line"/>
      <point x="439.112" y="840.91"/>
      <point x="402.604" y="814.087"/>
      <point x="356.095" y="814.087" type="curve" smooth="yes"/>
      <point x="309.587" y="814.087"/>
      <point x="273.08" y="840.91"/>
      <point x="263.08" y="867.732" type="curve"/>
      <point x="253.08" y="867.732" type="line"/>
      <point x="253.08" y="811.468"/>
      <point x="300.173" y="764.087"/>
      <point x="356.095" y="764.087" type="curve" smooth="yes"/>
      <point x="412.019" y="764.087"/>
      <point x="459.112" y="811.468"/>
      <point x="459.112" y="867.732" type="curve"/>
    </contour>
    <contour>
      <point x="359.414" y="714" type="line"/>
      <point x="350.408" y="714" type="line"/>
      <point x="350.408" y="692.013"/>
      <point x="313.382" y="611"/>
      <point x="313.382" y="611" type="curve"/>
      <point x="86.605" y="72.8925" type="line"/>
      <point x="66.381" y="28.4302"/>
      <point x="29.4102" y="9.99913"/>
      <point x="-1" y="9.99913" type="curve" smooth="yes"/>
      <point x="-10" y="9.99913" type="line"/>
      <point x="-10" y="0" type="line"/>
      <point x="191.277" y="0" type="line"/>
      <point x="191.277" y="9.90713" type="line"/>
      <point x="182.485" y="9.90713" type="line" smooth="yes"/>
      <point x="156.8" y="9.90713"/>
      <point x="130.156" y="32.4323"/>
      <point x="144.266" y="72.0709" type="curve"/>
      <point x="211.257" y="242.999" type="line"/>
      <point x="480.604" y="242.999" type="line"/>
      <point x="544.567" y="72.6799" type="line" smooth="yes"/>
      <point x="559.169" y="32.6629"/>
      <point x="532.384" y="9.90993"/>
      <point x="506.568" y="9.90993" type="curve" smooth="yes"/>
      <point x="497.776" y="9.90993" type="line"/>
      <point x="497.776" y="0" type="line"/>
      <point x="722.956" y="0" type="line"/>
      <point x="722.956" y="9.99893" type="line"/>
      <point x="714.593" y="9.99893" type="line" smooth="yes"/>
      <point x="683.958" y="9.99893"/>
      <point x="646.965" y="28.4485"/>
      <point x="626.748" y="72.9605" type="curve"/>
    </contour>
    <contour>
      <point x="223.015" y="272.999" type="line"/>
      <point x="348.805" y="593.953" type="line"/>
      <point x="469.338" y="272.999" type="line"/>
    </contour>
  </outline>
</glyph>
<glyph name="Aogonek" format="1">
  <advance width="727"/>
  <unicode hex="0104"/>
  <outline>
    <contour>
      <point x="929.701" y="-147" type="line"/>
      <point x="748" y="-152"/>
      <point x="662.602" y="0.838394"/>
      <point x="599" y="158" type="curve" smooth="yes"/>
      <point x="461" y="499" type="line" smooth="yes"/>
      <point x="408.541" y="628.626"/>
      <point x="335" y="787"/>
      <point x="102.902" y="719.652" type="curve"/>
      <point x="106.076" y="709.652" type="line"/>
      <point x="210.049" y="727.197"/>
      <point x="276.212" y="692.949"/>
      <point x="321.774" y="638.33" type="curve"/>
      <point x="84.0534" y="67.5914" type="line"/>
      <point x="63.3822" y="26.9611"/>
      <point x="28.1726" y="10"/>
      <point x="-1" y="10" type="curve" smooth="yes"/>
      <point x="-10" y="10" type="line"/>
      <point x="-10" y="0" type="line"/>
      <point x="191.278" y="0" type="line"/>
      <point x="191.278" y="9.90793" type="line"/>
      <point x="182.486" y="9.90793" type="line" smooth="yes"/>
      <point x="156.669" y="9.90793"/>
      <point x="129.884" y="32.6635"/>
      <point x="144.486" y="72.6814" type="curve" smooth="yes"/>
      <point x="213.751" y="251" type="line"/>
      <point x="488.906" y="251" type="line"/>
      <point x="532" y="137" type="line" smooth="yes"/>
      <point x="552.066" y="83.9229"/>
      <point x="572.718" y="39.6882"/>
      <point x="594.004" y="2.96362" type="curve"/>
      <point x="550.056" y="5.65472"/>
      <point x="509.714" y="-15"/>
      <point x="496.024" y="-54" type="curve" smooth="yes"/>
      <point x="457.594" y="-163"/>
      <point x="590.443" y="-215"/>
      <point x="646.888" y="-148" type="curve"/>
      <point x="643.302" y="-140" type="line"/>
      <point x="579.694" y="-172"/>
      <point x="525.437" y="-114"/>
      <point x="543.053" y="-59" type="curve" smooth="yes"/>
      <point x="551.853" y="-32"/>
      <point x="569.975" y="-15"/>
      <point x="602.308" y="-11" type="curve"/>
      <point x="697.704" y="-166"/>
      <point x="805.774" y="-175"/>
      <point x="930.874" y="-157" type="curve"/>
    </contour>
    <contour>
      <point x="225.431" y="281" type="line"/>
      <point x="349.315" y="599.195" type="line"/>
      <point x="366.087" y="571.22"/>
      <point x="379.458" y="540.532"/>
      <point x="390.999" y="510" type="curve" smooth="yes"/>
      <point x="477.565" y="281" type="line"/>
    </contour>
  </outline>
</glyph>
<glyph name="Cdotaccent" format="1">
  <advance width="821"/>
  <unicode hex="010A"/>
  <outline>
    <contour>
      <point x="483.888" y="807.686" type="curve" smooth="yes"/>
      <point x="483.888" y="831.484"/>
      <point x="464.596" y="850.776"/>
      <point x="440.798" y="850.776" type="curve" smooth="yes"/>
      <point x="417" y="850.776"/>
      <point x="397.708" y="831.484"/>
      <point x="397.708" y="807.686" type="curve" smooth="yes"/>
      <point x="397.708" y="783.888"/>
      <point x="417" y="764.596"/>
      <point x="440.798" y="764.596" type="curve" smooth="yes"/>
      <point x="464.596" y="764.596"/>
      <point x="483.888" y="783.888"/>
    </contour>
    <contour>
      <point x="786.167" y="374.85" type="line"/>
      <point x="786" y="149"/>
      <point x="646" y="16"/>
      <point x="448" y="16" type="curve" smooth="yes"/>
      <point x="251" y="16"/>
      <point x="120" y="164"/>
      <point x="120" y="353" type="curve" smooth="yes"/>
      <point x="120" y="542"/>
      <point x="252" y="684"/>
      <point x="430" y="684" type="curve" smooth="yes"/>
      <point x="547" y="684"/>
      <point x="666" y="622"/>
      <point x="696.378" y="505.264" type="curve"/>
      <point x="704.701" y="505.232" type="line"/>
      <point x="684.525" y="646.468" type="line"/>
      <point x="623" y="687"/>
      <point x="520" y="714"/>
      <point x="429" y="714" type="curve" smooth="yes"/>
      <point x="209" y="714"/>
      <point x="45" y="558"/>
      <point x="45" y="351" type="curve" smooth="yes"/>
      <point x="45" y="144"/>
      <point x="210" y="-14"/>
      <point x="443" y="-14" type="curve" smooth="yes"/>
      <point x="663" y="-14"/>
      <point x="805" y="116"/>
      <point x="796.167" y="374.886" type="curve"/>
    </contour>
  </outline>
</glyph>
<glyph name="Ccaron" format="1">
  <advance width="821"/>
  <unicode hex="010C"/>
  <outline>
    <contour>
      <point x="447.143" y="764.153" type="line"/>
      <point x="437.143" y="764.153" type="line"/>
      <point x="322.968" y="883.005" type="line"/>
      <point x="328.968" y="891.005" type="line"/>
      <point x="442.613" y="824.909" type="line"/>
      <point x="547.273" y="890.909" type="line"/>
      <point x="553.273" y="882.909" type="line"/>
    </contour>
    <contour>
      <point x="786.167" y="374.85" type="line"/>
      <point x="786" y="149"/>
      <point x="646" y="16"/>
      <point x="448" y="16" type="curve" smooth="yes"/>
      <point x="251" y="16"/>
      <point x="120" y="164"/>
      <point x="120" y="353" type="curve" smooth="yes"/>
      <point x="120" y="542"/>
      <point x="252" y="684"/>
      <point x="430" y="684" type="curve" smooth="yes"/>
      <point x="547" y="684"/>
      <point x="666" y="622"/>
      <point x="696.378" y="505.264" type="curve"/>
      <point x="704.701" y="505.232" type="line"/>
      <point x="684.525" y="646.468" type="line"/>
      <point x="623" y="687"/>
      <point x="520" y="714"/>
      <point x="429" y="714" type="curve" smooth="yes"/>
      <point x="209" y="714"/>
      <point x="45" y="558"/>
      <point x="45" y="351" type="curve" smooth="yes"/>
      <point x="45" y="144"/>
      <point x="210" y="-14"/>
      <point x="443" y="-14" type="curve" smooth="yes"/>
      <point x="663" y="-14"/>
      <point x="805" y="116"/>
      <point x="796.167" y="374.886" type="curve"/>
    </contour>
  </outline>
</glyph>
<glyph name="Eogonek" format="1">
  <advance width="607"/>
  <unicode hex="0118"/>
  <outline>
    <contour>
      <point x="544.557" y="0" type="curve"/>
      <point x="602.845" y="161.544" type="line"/>
      <point x="592.845" y="161.544" type="line"/>
      <point x="561.976" y="85.4061"/>
      <point x="521.283" y="30.5931"/>
      <point x="415.32" y="30.5931" type="curve" smooth="yes"/>
      <point x="201.901" y="30.5931" type="line"/>
      <point x="201.901" y="330.219" type="line"/>
      <point x="392.938" y="330.219" type="line"/>
      <point x="419.251" y="329.181"/>
      <point x="440.275" y="307.555"/>
      <point x="440.275" y="280.978" type="curve" smooth="yes"/>
      <point x="440.259" y="266.244" type="line"/>
      <point x="450.032" y="266.12" type="line"/>
      <point x="450.032" y="424.376" type="line"/>
      <point x="440.259" y="424.251" type="line"/>
      <point x="440.276" y="409.517" type="line" smooth="yes"/>
      <point x="440.276" y="382.594"/>
      <point x="418.698" y="360.754"/>
      <point x="391.904" y="360.249" type="curve" smooth="yes"/>
      <point x="201.901" y="360.249" type="line"/>
      <point x="201.901" y="669.41" type="line"/>
      <point x="315.771" y="669.41" type="line"/>
      <point x="347.01" y="667.512"/>
      <point x="371.766" y="641.616"/>
      <point x="371.766" y="609.892" type="curve" smooth="yes"/>
      <point x="371.747" y="592.068" type="line"/>
      <point x="381.847" y="591.918" type="line"/>
      <point x="381.847" y="672.219" type="line"/>
      <point x="381.798" y="688.911" type="line"/>
      <point x="381.798" y="718.188" type="line"/>
      <point x="363.253" y="710.367"/>
      <point x="305.681" y="700.408"/>
      <point x="262.582" y="700" type="curve" smooth="yes"/>
      <point x="60.3519" y="700" type="line"/>
      <point x="60.5139" y="690.061" type="line"/>
      <point x="73.1639" y="690.081" type="line" smooth="yes"/>
      <point x="106.268" y="690.081"/>
      <point x="136.87" y="664.99"/>
      <point x="136.87" y="632.799" type="curve" smooth="yes"/>
      <point x="136.87" y="72.8646" type="line" smooth="yes"/>
      <point x="136.211" y="38.0296"/>
      <point x="107.814" y="9.97959"/>
      <point x="72.8119" y="9.97959" type="curve" smooth="yes"/>
      <point x="60.1619" y="10" type="line"/>
      <point x="60" y="0" type="line"/>
      <point x="506.188" y="0" type="line"/>
      <point x="459.186" y="-10"/>
      <point x="423.525" y="-45"/>
      <point x="424.038" y="-89" type="curve" smooth="yes"/>
      <point x="425.362" y="-205"/>
      <point x="567.828" y="-208"/>
      <point x="598.051" y="-126" type="curve"/>
      <point x="592.051" y="-120" type="line"/>
      <point x="542.923" y="-171"/>
      <point x="472.081" y="-135"/>
      <point x="470.081" y="-78" type="curve" smooth="yes"/>
      <point x="468.763" y="-40"/>
      <point x="489.151" y="-13"/>
    </contour>
  </outline>
</glyph>
<glyph name="eogonek" format="1">
  <advance width="577"/>
  <unicode hex="0119"/>
  <outline>
    <contour>
      <point x="532.845" y="161.543" type="line"/>
      <point x="522.845" y="161.543" type="line"/>
      <point x="491.976" y="85.405"/>
      <point x="451.283" y="30.592"/>
      <point x="345.32" y="30.592" type="curve" smooth="yes"/>
      <point x="201.901" y="30.592" type="line"/>
      <point x="201.901" y="330.218" type="line"/>
      <point x="371.938" y="330.218" type="line"/>
      <point x="398.251" y="329.18"/>
      <point x="419.275" y="307.554"/>
      <point x="419.275" y="280.977" type="curve" smooth="yes"/>
      <point x="419.259" y="266.243" type="line"/>
      <point x="429.032" y="266.119" type="line"/>
      <point x="429.032" y="424.375" type="line"/>
      <point x="419.259" y="424.25" type="line"/>
      <point x="419.276" y="409.516" type="line" smooth="yes"/>
      <point x="419.276" y="382.593"/>
      <point x="397.698" y="360.753"/>
      <point x="370.904" y="360.248" type="curve" smooth="yes"/>
      <point x="201.901" y="360.248" type="line"/>
      <point x="201.901" y="669.409" type="line"/>
      <point x="405.771" y="669.409" type="line"/>
      <point x="437.01" y="667.51"/>
      <point x="461.765" y="641.614"/>
      <point x="461.765" y="609.891" type="curve" smooth="yes"/>
      <point x="461.746" y="592.067" type="line"/>
      <point x="471.846" y="591.917" type="line"/>
      <point x="471.846" y="672.218" type="line"/>
      <point x="471.797" y="688.91" type="line"/>
      <point x="471.797" y="718.187" type="line"/>
      <point x="453.253" y="710.365"/>
      <point x="395.681" y="700.407"/>
      <point x="352.581" y="700" type="curve" smooth="yes"/>
      <point x="60.3515" y="700" type="line"/>
      <point x="60.5135" y="690.06" type="line"/>
      <point x="73.1635" y="690.08" type="line" smooth="yes"/>
      <point x="106.267" y="690.08"/>
      <point x="136.869" y="664.988"/>
      <point x="136.869" y="632.797" type="curve" smooth="yes"/>
      <point x="136.869" y="72.8634" type="line" smooth="yes"/>
      <point x="136.21" y="38.0284"/>
      <point x="107.813" y="9.97837"/>
      <point x="72.8115" y="9.97837" type="curve" smooth="yes"/>
      <point x="60.1615" y="9.99937" type="line"/>
      <point x="60" y="0" type="line"/>
      <point x="435.947" y="0" type="line"/>
      <point x="388.965" y="-10"/>
      <point x="353.326" y="-45"/>
      <point x="353.838" y="-89" type="curve" smooth="yes"/>
      <point x="355.162" y="-205"/>
      <point x="497.628" y="-208"/>
      <point x="527.851" y="-126" type="curve"/>
      <point x="521.851" y="-120" type="line"/>
      <point x="472.723" y="-171"/>
      <point x="401.881" y="-135"/>
      <point x="399.881" y="-78" type="curve" smooth="yes"/>
      <point x="398.564" y="-40"/>
      <point x="418.942" y="-13"/>
      <point x="474.32" y="0" type="curve"/>
    </contour>
  </outline>
</glyph>
<glyph name="Ecaron" format="1">
  <advance width="607"/>
  <unicode hex="011A"/>
  <outline>
    <contour>
      <point x="253.267" y="764.153" type="line"/>
      <point x="243.267" y="764.153" type="line"/>
      <point x="129.092" y="883.005" type="line"/>
      <point x="135.092" y="891.005" type="line"/>
      <point x="248.737" y="824.909" type="line"/>
      <point x="353.397" y="890.909" type="line"/>
      <point x="359.397" y="882.909" type="line"/>
    </contour>
    <contour>
      <point x="602.845" y="161.544" type="line"/>
      <point x="592.845" y="161.544" type="line"/>
      <point x="561.976" y="85.4062"/>
      <point x="521.283" y="30.5932"/>
      <point x="415.32" y="30.5932" type="curve" smooth="yes"/>
      <point x="201.901" y="30.5932" type="line"/>
      <point x="201.901" y="330.219" type="line"/>
      <point x="392.938" y="330.219" type="line"/>
      <point x="419.251" y="329.181"/>
      <point x="440.275" y="307.555"/>
      <point x="440.275" y="280.978" type="curve" smooth="yes"/>
      <point x="440.259" y="266.244" type="line"/>
      <point x="450.032" y="266.12" type="line"/>
      <point x="450.032" y="424.376" type="line"/>
      <point x="440.259" y="424.251" type="line"/>
      <point x="440.276" y="409.517" type="line" smooth="yes"/>
      <point x="440.276" y="382.594"/>
      <point x="418.698" y="360.754"/>
      <point x="391.904" y="360.249" type="curve" smooth="yes"/>
      <point x="201.901" y="360.249" type="line"/>
      <point x="201.901" y="669.41" type="line"/>
      <point x="315.771" y="669.41" type="line"/>
      <point x="347.01" y="667.512"/>
      <point x="371.765" y="641.616"/>
      <point x="371.765" y="609.892" type="curve" smooth="yes"/>
      <point x="371.746" y="592.068" type="line"/>
      <point x="381.846" y="591.918" type="line"/>
      <point x="381.846" y="672.219" type="line"/>
      <point x="381.797" y="688.911" type="line"/>
      <point x="381.797" y="718.188" type="line"/>
      <point x="363.253" y="710.367"/>
      <point x="305.681" y="700.408"/>
      <point x="262.582" y="700" type="curve" smooth="yes"/>
      <point x="60.3519" y="700" type="line"/>
      <point x="60.5139" y="690.061" type="line"/>
      <point x="73.1639" y="690.081" type="line" smooth="yes"/>
      <point x="106.268" y="690.081"/>
      <point x="136.87" y="664.99"/>
      <point x="136.87" y="632.799" type="curve" smooth="yes"/>
      <point x="136.87" y="72.8647" type="line" smooth="yes"/>
      <point x="136.211" y="38.0297"/>
      <point x="107.814" y="9.97969"/>
      <point x="72.8119" y="9.97969" type="curve" smooth="yes"/>
      <point x="60.1619" y="10" type="line"/>
      <point x="60" y="0" type="line"/>
      <point x="544.557" y="0" type="line"/>
    </contour>
  </outline>
</glyph>
<glyph name="iogonek" format="1">
  <advance width="338"/>
  <unicode hex="012F"/>
  <outline>
    <contour>
      <point x="278.787" y="0" type="line"/>
      <point x="278.626" y="10" type="line"/>
      <point x="265.976" y="9.979" type="line" smooth="yes"/>
      <point x="230.974" y="9.979"/>
      <point x="202.577" y="38.029"/>
      <point x="201.922" y="72.864" type="curve" smooth="yes"/>
      <point x="201.922" y="627.818" type="line" smooth="yes"/>
      <point x="202.9" y="662.363"/>
      <point x="231.167" y="690.08"/>
      <point x="265.959" y="690.08" type="curve" smooth="yes"/>
      <point x="278.609" y="690.06" type="line"/>
      <point x="278.771" y="700.06" type="line"/>
      <point x="60.016" y="700.06" type="line"/>
      <point x="60.178" y="690.06" type="line"/>
      <point x="72.828" y="690.08" type="line" smooth="yes"/>
      <point x="107.692" y="690.08"/>
      <point x="136.003" y="662.25"/>
      <point x="136.873" y="627.606" type="curve" smooth="yes"/>
      <point x="136.873" y="72.8641" type="line" smooth="yes"/>
      <point x="136.21" y="38.0291"/>
      <point x="107.813" y="9.97908"/>
      <point x="72.8109" y="9.97908" type="curve" smooth="yes"/>
      <point x="60.1609" y="10" type="line"/>
      <point x="59.9999" y="0" type="line"/>
      <point x="150.039" y="0" type="line"/>
      <point x="103.118" y="-10"/>
      <point x="67.5408" y="-45"/>
      <point x="68.0529" y="-89" type="curve" smooth="yes"/>
      <point x="69.3769" y="-205"/>
      <point x="211.843" y="-208"/>
      <point x="242.066" y="-126" type="curve"/>
      <point x="236.066" y="-120" type="line"/>
      <point x="186.938" y="-171"/>
      <point x="116.096" y="-135"/>
      <point x="114.096" y="-78" type="curve" smooth="yes"/>
      <point x="112.778" y="-40"/>
      <point x="133.165" y="-13"/>
      <point x="188.567" y="0" type="curve"/>
    </contour>
  </outline>
</glyph>
<glyph name="Kcommaaccent" format="1">
  <advance width="669"/>
  <unicode hex="0136"/>
  <outline>
    <contour>
      <point x="201.922" y="627.818" type="line" smooth="yes"/>
      <point x="202.9" y="662.363"/>
      <point x="231.167" y="690.08"/>
      <point x="265.959" y="690.08" type="curve" smooth="yes"/>
      <point x="278.609" y="690.06" type="line"/>
      <point x="278.771" y="700.06" type="line"/>
      <point x="60.0161" y="700.06" type="line"/>
      <point x="60.1781" y="690.06" type="line"/>
      <point x="72.8281" y="690.08" type="line" smooth="yes"/>
      <point x="107.692" y="690.08"/>
      <point x="136.003" y="662.249"/>
      <point x="136.873" y="627.605" type="curve" smooth="yes"/>
      <point x="136.873" y="72.8634" type="line" smooth="yes"/>
      <point x="136.21" y="38.0284"/>
      <point x="107.813" y="9.9784"/>
      <point x="72.811" y="9.9784" type="curve" smooth="yes"/>
      <point x="60.161" y="9.9994" type="line"/>
      <point x="60" y="0" type="line"/>
      <point x="278.787" y="0" type="line"/>
      <point x="278.626" y="9.9994" type="line"/>
      <point x="265.976" y="9.9784" type="line" smooth="yes"/>
      <point x="230.974" y="9.9784"/>
      <point x="202.577" y="38.0284"/>
      <point x="201.922" y="72.8638" type="curve" smooth="yes"/>
    </contour>
    <contour>
      <point x="302.035" y="374.983" type="line"/>
      <point x="535.311" y="644.188" type="line" smooth="yes"/>
      <point x="561.129" y="673.113"/>
      <point x="600.137" y="690.884"/>
      <point x="643.033" y="690.98" type="curve" smooth="yes"/>
      <point x="647.413" y="690.98" type="line"/>
      <point x="647.413" y="700" type="line"/>
      <point x="436.186" y="700" type="line"/>
      <point x="436.186" y="691.157" type="line"/>
      <point x="445.85" y="691.164" type="line" smooth="yes"/>
      <point x="473.321" y="691.164"/>
      <point x="486.933" y="666.233"/>
      <point x="469.936" y="643.926" type="curve" smooth="yes"/>
      <point x="234.078" y="348.182" type="line"/>
      <point x="565.417" y="-5" type="line" smooth="yes"/>
      <point x="743.015" y="-194"/>
      <point x="892.915" y="-175"/>
      <point x="959.141" y="-160" type="curve"/>
      <point x="959.141" y="-150" type="line"/>
      <point x="836.159" y="-150"/>
      <point x="722.016" y="-74"/>
      <point x="642.143" y="11.6185" type="curve" smooth="yes"/>
    </contour>
    <contour>
      <point x="357.411" y="-208" type="line"/>
      <point x="409.692" y="-206"/>
      <point x="452.754" y="-151"/>
      <point x="426.76" y="-89" type="curve" smooth="yes"/>
      <point x="413.229" y="-56"/>
      <point x="374.281" y="-58"/>
      <point x="364.086" y="-81" type="curve" smooth="yes"/>
      <point x="355.125" y="-101"/>
      <point x="372.034" y="-115"/>
      <point x="382.458" y="-128" type="curve" smooth="yes"/>
      <point x="396.139" y="-144"/>
      <point x="404.101" y="-186"/>
      <point x="355.46" y="-201" type="curve"/>
    </contour>
  </outline>
</glyph>
<glyph name="kcommaaccent" format="1">
  <advance width="657"/>
  <unicode hex="0137"/>
  <outline>
    <contour>
      <point x="201.922" y="627.818" type="line" smooth="yes"/>
      <point x="202.9" y="662.363"/>
      <point x="231.167" y="690.08"/>
      <point x="265.959" y="690.08" type="curve" smooth="yes"/>
      <point x="278.609" y="690.06" type="line"/>
      <point x="278.771" y="700.06" type="line"/>
      <point x="60.0161" y="700.06" type="line"/>
      <point x="60.1781" y="690.06" type="line"/>
      <point x="72.8281" y="690.08" type="line" smooth="yes"/>
      <point x="107.692" y="690.08"/>
      <point x="136.003" y="662.25"/>
      <point x="136.873" y="627.606" type="curve" smooth="yes"/>
      <point x="136.873" y="72.8636" type="line" smooth="yes"/>
      <point x="136.21" y="38.0286"/>
      <point x="107.813" y="9.97861"/>
      <point x="72.811" y="9.97861" type="curve" smooth="yes"/>
      <point x="60.161" y="9.99961" type="line"/>
      <point x="60" y="0" type="line"/>
      <point x="278.787" y="0" type="line"/>
      <point x="278.626" y="9.99961" type="line"/>
      <point x="265.976" y="9.97861" type="line" smooth="yes"/>
      <point x="230.974" y="9.97861"/>
      <point x="202.577" y="38.0286"/>
      <point x="201.922" y="72.8641" type="curve" smooth="yes"/>
    </contour>
    <contour>
      <point x="299.705" y="372.295" type="line"/>
      <point x="535.31" y="644.187" type="line" smooth="yes"/>
      <point x="561.128" y="673.112"/>
      <point x="600.136" y="690.883"/>
      <point x="643.032" y="690.979" type="curve" smooth="yes"/>
      <point x="647.412" y="690.979" type="line"/>
      <point x="647.412" y="699.999" type="line"/>
      <point x="436.185" y="699.999" type="line"/>
      <point x="436.185" y="691.156" type="line"/>
      <point x="445.849" y="691.163" type="line" smooth="yes"/>
      <point x="473.32" y="691.163"/>
      <point x="486.932" y="666.232"/>
      <point x="469.935" y="643.926" type="curve" smooth="yes"/>
      <point x="234.076" y="348.182" type="line"/>
      <point x="474.769" y="56.7785" type="line"/>
      <point x="520.699" y="3.19251"/>
      <point x="597.305" y="0.21851"/>
      <point x="625.448" y="0.13051" type="curve" smooth="yes"/>
      <point x="667.724" y="0.13051" type="line"/>
      <point x="667.724" y="10.0745" type="line"/>
      <point x="627.077" y="11.1095"/>
      <point x="600.629" y="23.5415"/>
      <point x="573.266" y="50.9057" type="curve"/>
    </contour>
    <contour>
      <point x="360.219" y="-208" type="line"/>
      <point x="412.5" y="-206"/>
      <point x="455.562" y="-151"/>
      <point x="429.568" y="-89" type="curve" smooth="yes"/>
      <point x="416.037" y="-56"/>
      <point x="377.089" y="-58"/>
      <point x="366.894" y="-81" type="curve" smooth="yes"/>
      <point x="357.932" y="-101"/>
      <point x="374.842" y="-115"/>
      <point x="385.265" y="-128" type="curve" smooth="yes"/>
      <point x="398.947" y="-144"/>
      <point x="406.908" y="-186"/>
      <point x="358.268" y="-201" type="curve"/>
    </contour>
  </outline>
</glyph>
<glyph name="Lcommaaccent" format="1">
  <advance width="401"/>
  <unicode hex="013B"/>
  <outline>
    <contour>
      <point x="921.213" y="-111" type="line"/>
      <point x="756" y="-174"/>
      <point x="658.335" y="-161"/>
      <point x="250" y="-19" type="curve" smooth="yes"/>
      <point x="202.807" y="-3"/>
      <point x="202" y="22"/>
      <point x="201.915" y="49.6635" type="curve" smooth="yes"/>
      <point x="201.915" y="627.078" type="line" smooth="yes"/>
      <point x="202.571" y="661.912"/>
      <point x="230.968" y="689.962"/>
      <point x="265.969" y="689.962" type="curve" smooth="yes"/>
      <point x="278.619" y="689.942" type="line"/>
      <point x="278.781" y="699.942" type="line"/>
      <point x="60" y="699.942" type="line"/>
      <point x="60.162" y="689.942" type="line"/>
      <point x="72.812" y="689.962" type="line" smooth="yes"/>
      <point x="107.813" y="689.962"/>
      <point x="136.21" y="661.912"/>
      <point x="136.866" y="627.078" type="curve" smooth="yes"/>
      <point x="136.866" y="72.8645" type="line" smooth="yes"/>
      <point x="136" y="37"/>
      <point x="107" y="10"/>
      <point x="73" y="10" type="curve" smooth="yes"/>
      <point x="60.1763" y="10" type="line"/>
      <point x="60.0153" y="0" type="line"/>
      <point x="117.318" y="-1"/>
      <point x="175.847" y="-22"/>
      <point x="236.311" y="-49" type="curve" smooth="yes"/>
      <point x="436.484" y="-138"/>
      <point x="657.871" y="-304"/>
      <point x="926.212" y="-119" type="curve"/>
    </contour>
    <contour>
      <point x="203.436" y="-254" type="line"/>
      <point x="255.717" y="-252"/>
      <point x="298.779" y="-197"/>
      <point x="272.785" y="-135" type="curve" smooth="yes"/>
      <point x="259.254" y="-102"/>
      <point x="220.306" y="-104"/>
      <point x="210.111" y="-127" type="curve" smooth="yes"/>
      <point x="201.149" y="-147"/>
      <point x="218.059" y="-161"/>
      <point x="228.482" y="-174" type="curve" smooth="yes"/>
      <point x="242.164" y="-190"/>
      <point x="250.125" y="-232"/>
      <point x="201.485" y="-247" type="curve"/>
    </contour>
  </outline>
</glyph>
<glyph name="lcommaaccent" format="1">
  <advance width="562"/>
  <unicode hex="013C"/>
  <outline>
    <contour>
      <point x="522.86" y="161.543" type="line"/>
      <point x="491.991" y="85.405"/>
      <point x="451.298" y="30.592"/>
      <point x="345.335" y="30.592" type="curve" smooth="yes"/>
      <point x="201.915" y="30.592" type="line"/>
      <point x="201.915" y="627.077" type="line" smooth="yes"/>
      <point x="202.571" y="661.911"/>
      <point x="230.968" y="689.961"/>
      <point x="265.969" y="689.961" type="curve" smooth="yes"/>
      <point x="278.619" y="689.941" type="line"/>
      <point x="278.781" y="699.941" type="line"/>
      <point x="60" y="699.941" type="line"/>
      <point x="60.162" y="689.941" type="line"/>
      <point x="72.812" y="689.961" type="line" smooth="yes"/>
      <point x="107.813" y="689.961"/>
      <point x="136.21" y="661.911"/>
      <point x="136.866" y="627.077" type="curve" smooth="yes"/>
      <point x="136.866" y="72.864" type="line" smooth="yes"/>
      <point x="136.225" y="38.029"/>
      <point x="107.828" y="9.97897"/>
      <point x="72.826" y="9.97897" type="curve" smooth="yes"/>
      <point x="60.176" y="9.99997" type="line"/>
      <point x="60.015" y="0" type="line"/>
      <point x="474.572" y="0" type="line"/>
      <point x="532.86" y="161.543" type="line"/>
    </contour>
    <contour>
      <point x="269.064" y="-208" type="line"/>
      <point x="321.345" y="-206"/>
      <point x="364.407" y="-151"/>
      <point x="338.413" y="-89" type="curve" smooth="yes"/>
      <point x="324.882" y="-56"/>
      <point x="285.934" y="-58"/>
      <point x="275.739" y="-81" type="curve" smooth="yes"/>
      <point x="266.777" y="-101"/>
      <point x="283.687" y="-115"/>
      <point x="294.11" y="-128" type="curve" smooth="yes"/>
      <point x="307.792" y="-144"/>
      <point x="315.753" y="-186"/>
      <point x="267.113" y="-201" type="curve"/>
    </contour>
  </outline>
</glyph>
<glyph name="Ldot" format="1">
  <advance width="476"/>
  <unicode hex="013F"/>
  <outline>
    <contour>
      <point x="921.213" y="-111" type="line"/>
      <point x="756" y="-174"/>
      <point x="658.335" y="-161"/>
      <point x="250" y="-19" type="curve" smooth="yes"/>
      <point x="202.807" y="-3"/>
      <point x="202" y="22"/>
      <point x="201.915" y="49.664" type="curve" smooth="yes"/>
      <point x="201.915" y="627.077" type="line" smooth="yes"/>
      <point x="202.571" y="661.911"/>
      <point x="230.968" y="689.961"/>
      <point x="265.969" y="689.961" type="curve" smooth="yes"/>
      <point x="278.619" y="689.941" type="line"/>
      <point x="278.781" y="699.941" type="line"/>
      <point x="60" y="699.941" type="line"/>
      <point x="60.162" y="689.941" type="line"/>
      <point x="72.812" y="689.961" type="line" smooth="yes"/>
      <point x="107.813" y="689.961"/>
      <point x="136.21" y="661.911"/>
      <point x="136.866" y="627.077" type="curve" smooth="yes"/>
      <point x="136.885" y="72.864" type="line" smooth="yes"/>
      <point x="136" y="37"/>
      <point x="107" y="10"/>
      <point x="73" y="10" type="curve" smooth="yes"/>
      <point x="60.176" y="10" type="line"/>
      <point x="60.015" y="0" type="line"/>
      <point x="117.318" y="-1"/>
      <point x="175.847" y="-22"/>
      <point x="236.311" y="-49" type="curve" smooth="yes"/>
      <point x="436.484" y="-138"/>
      <point x="657.871" y="-304"/>
      <point x="926.212" y="-119" type="curve"/>
    </contour>
    <contour>
      <point x="379.423" y="448" type="curve" smooth="yes"/>
      <point x="379.423" y="472.853"/>
      <point x="359.276" y="493"/>
      <point x="334.423" y="493" type="curve" smooth="yes"/>
      <point x="309.57" y="493"/>
      <point x="289.423" y="472.853"/>
      <point x="289.423" y="448" type="curve" smooth="yes"/>
      <point x="289.423" y="423.147"/>
      <point x="309.57" y="403"/>
      <point x="334.423" y="403" type="curve" smooth="yes"/>
      <point x="359.276" y="403"/>
      <point x="379.423" y="423.147"/>
    </contour>
    <contour>
      <point x="237.331" y="-110" type="move" smooth="yes"/>
    </contour>
  </outline>
</glyph>
<glyph name="nacute" format="1">
  <advance width="841"/>
  <unicode hex="0144"/>
  <outline>
    <contour>
      <point x="425.828" y="763.971" type="line"/>
      <point x="479.451" y="790.399"/>
      <point x="533.075" y="817.828"/>
      <point x="586.698" y="849.256" type="curve"/>
      <point x="576.064" y="868.792"/>
      <point x="561.429" y="886.329"/>
      <point x="545.795" y="901.865" type="curve"/>
      <point x="503.473" y="861.234"/>
      <point x="461.15" y="816.602"/>
      <point x="418.828" y="770.971" type="curve"/>
    </contour>
    <contour>
      <point x="590.233" y="700.019" type="line"/>
      <point x="590.387" y="690.019" type="line"/>
      <point x="608.841" y="690.038" type="line" smooth="yes"/>
      <point x="642.579" y="690.042"/>
      <point x="669.944" y="663.005"/>
      <point x="670.575" y="629.431" type="curve" smooth="yes"/>
      <point x="670.575" y="133.49" type="line"/>
      <point x="125.997" y="715" type="line"/>
      <point x="116.136" y="714.991" type="line"/>
      <point x="116.136" y="714.991"/>
      <point x="125.345" y="658.335"/>
      <point x="125.345" y="590.069" type="curve" smooth="yes"/>
      <point x="125.345" y="70.544" type="line" smooth="yes"/>
      <point x="124.69" y="36.9923"/>
      <point x="97.3315" y="9.9809"/>
      <point x="63.6129" y="9.9809" type="curve" smooth="yes"/>
      <point x="45.1549" y="9.9999" type="line"/>
      <point x="44.9999" y="0" type="line"/>
      <point x="250.987" y="0" type="line"/>
      <point x="250.833" y="9.9999" type="line"/>
      <point x="232.372" y="9.9809" type="line" smooth="yes"/>
      <point x="198.901" y="9.9809"/>
      <point x="171.696" y="36.6007"/>
      <point x="170.656" y="69.8128" type="curve"/>
      <point x="170.656" y="567.721" type="line"/>
      <point x="716.021" y="-14" type="line"/>
      <point x="725.103" y="-14" type="line"/>
      <point x="725.103" y="-14"/>
      <point x="715.982" y="49.1508"/>
      <point x="715.982" y="113.582" type="curve" smooth="yes"/>
      <point x="715.982" y="630.256" type="line"/>
      <point x="717.042" y="663.448"/>
      <point x="744.236" y="690.042"/>
      <point x="777.695" y="690.038" type="curve" smooth="yes"/>
      <point x="796.152" y="690.019" type="line"/>
      <point x="796.306" y="700.019" type="line"/>
    </contour>
  </outline>
</glyph>
<glyph name="Ncaron" format="1">
  <advance width="841"/>
  <unicode hex="0147"/>
  <outline>
    <contour>
      <point x="430.849" y="764.154" type="line"/>
      <point x="420.849" y="764.154" type="line"/>
      <point x="306.674" y="883.006" type="line"/>
      <point x="312.674" y="891.006" type="line"/>
      <point x="426.319" y="824.91" type="line"/>
      <point x="530.979" y="890.91" type="line"/>
      <point x="536.979" y="882.91" type="line"/>
    </contour>
    <contour>
      <point x="1050" y="-142" type="line"/>
      <point x="888.435" y="-173"/>
      <point x="787.502" y="-14"/>
      <point x="715.983" y="65.4648" type="curve"/>
      <point x="715.983" y="630.257" type="line"/>
      <point x="717.042" y="663.449"/>
      <point x="744.236" y="690.043"/>
      <point x="777.696" y="690.039" type="curve" smooth="yes"/>
      <point x="796.152" y="690.02" type="line"/>
      <point x="796.306" y="700.019" type="line"/>
      <point x="590.233" y="700.019" type="line"/>
      <point x="590.387" y="690.019" type="line"/>
      <point x="608.841" y="690.038" type="line" smooth="yes"/>
      <point x="642.579" y="690.042"/>
      <point x="669.944" y="663.005"/>
      <point x="670.575" y="629.431" type="curve" smooth="yes"/>
      <point x="670.575" y="115.889" type="line"/>
      <point x="167.217" y="675.668" type="line" smooth="yes"/>
      <point x="77.3918" y="775.549"/>
      <point x="-28" y="881.263"/>
      <point x="-188" y="814.045" type="curve"/>
      <point x="-184" y="803.977" type="line"/>
      <point x="-34" y="847.525"/>
      <point x="66.9109" y="692.002"/>
      <point x="125.344" y="620.313" type="curve"/>
      <point x="125.344" y="70.5445" type="line" smooth="yes"/>
      <point x="124.689" y="36.9928"/>
      <point x="97.3311" y="9.98145"/>
      <point x="63.6125" y="9.98145" type="curve" smooth="yes"/>
      <point x="45.1545" y="10" type="line"/>
      <point x="44.9995" y="0" type="line"/>
      <point x="250.986" y="0" type="line"/>
      <point x="250.832" y="10" type="line"/>
      <point x="232.371" y="9.98145" type="line" smooth="yes"/>
      <point x="198.9" y="9.98145"/>
      <point x="171.696" y="36.6012"/>
      <point x="170.656" y="69.8134" type="curve"/>
      <point x="170.656" y="569.946" type="line"/>
      <point x="698.081" y="-14" type="line" smooth="yes"/>
      <point x="788.057" y="-113"/>
      <point x="892.903" y="-203"/>
      <point x="1053.82" y="-152" type="curve"/>
    </contour>
  </outline>
</glyph>
<glyph name="ncaron" format="1">
  <advance width="841"/>
  <unicode hex="0148"/>
  <outline>
    <contour>
      <point x="430.849" y="764.153" type="line"/>
      <point x="420.849" y="764.153" type="line"/>
      <point x="306.674" y="883.005" type="line"/>
      <point x="312.674" y="891.005" type="line"/>
      <point x="426.319" y="824.909" type="line"/>
      <point x="530.979" y="890.909" type="line"/>
      <point x="536.979" y="882.909" type="line"/>
    </contour>
    <contour>
      <point x="590.233" y="700.019" type="line"/>
      <point x="590.387" y="690.019" type="line"/>
      <point x="608.841" y="690.038" type="line" smooth="yes"/>
      <point x="642.579" y="690.042"/>
      <point x="669.944" y="663.005"/>
      <point x="670.575" y="629.431" type="curve" smooth="yes"/>
      <point x="670.575" y="133.49" type="line"/>
      <point x="125.997" y="715" type="line"/>
      <point x="116.136" y="714.991" type="line"/>
      <point x="116.136" y="714.991"/>
      <point x="125.345" y="658.335"/>
      <point x="125.345" y="590.069" type="curve" smooth="yes"/>
      <point x="125.345" y="70.5441" type="line" smooth="yes"/>
      <point x="124.69" y="36.9924"/>
      <point x="97.3315" y="9.981"/>
      <point x="63.6129" y="9.981" type="curve" smooth="yes"/>
      <point x="45.1549" y="10" type="line"/>
      <point x="44.9999" y="0" type="line"/>
      <point x="250.987" y="0" type="line"/>
      <point x="250.833" y="10" type="line"/>
      <point x="232.372" y="9.981" type="line" smooth="yes"/>
      <point x="198.9" y="9.981"/>
      <point x="171.696" y="36.6008"/>
      <point x="170.656" y="69.8129" type="curve"/>
      <point x="170.656" y="567.721" type="line"/>
      <point x="716.021" y="-14" type="line"/>
      <point x="725.103" y="-14" type="line"/>
      <point x="725.103" y="-14"/>
      <point x="715.982" y="49.1509"/>
      <point x="715.982" y="113.582" type="curve" smooth="yes"/>
      <point x="715.982" y="630.256" type="line"/>
      <point x="717.042" y="663.448"/>
      <point x="744.236" y="690.043"/>
      <point x="777.695" y="690.039" type="curve" smooth="yes"/>
      <point x="796.152" y="690.02" type="line"/>
      <point x="796.306" y="700.019" type="line"/>
    </contour>
  </outline>
</glyph>
<glyph name="Eng" format="1">
  <advance width="819"/>
  <unicode hex="014A"/>
  <outline>
    <contour>
      <point x="590.226" y="700" type="line"/>
      <point x="590.359" y="687.088" type="line"/>
      <point x="606.268" y="687.113" type="line" smooth="yes"/>
      <point x="635.352" y="687.116"/>
      <point x="658.943" y="663.8"/>
      <point x="659.487" y="634.857" type="curve" smooth="yes"/>
      <point x="659.512" y="134.473" type="line"/>
      <point x="197.217" y="627.668" type="line"/>
      <point x="106.828" y="727.039"/>
      <point x="2.06001" y="833.263"/>
      <point x="-158" y="766.045" type="curve"/>
      <point x="-154" y="755.977" type="line"/>
      <point x="-36" y="790.462"/>
      <point x="52.4774" y="700.038"/>
      <point x="113.137" y="625.354" type="curve"/>
      <point x="113.137" y="62.2535" type="line" smooth="yes"/>
      <point x="112.236" y="34.5768"/>
      <point x="89.2158" y="12.7"/>
      <point x="61.045" y="12.7" type="curve" smooth="yes"/>
      <point x="45.133" y="12.724" type="line"/>
      <point x="45" y="0" type="line"/>
      <point x="228.85" y="0" type="line"/>
      <point x="228.717" y="12.724" type="line"/>
      <point x="212.803" y="12.7" type="line" smooth="yes"/>
      <point x="183.723" y="12.7"/>
      <point x="160.13" y="36.015"/>
      <point x="159.583" y="64.957" type="curve" smooth="yes"/>
      <point x="159.583" y="567.791" type="line"/>
      <point x="659.545" y="33.2716" type="line"/>
      <point x="659.545" y="-30" type="line" smooth="yes"/>
      <point x="659.549" y="-127"/>
      <point x="613.856" y="-174"/>
      <point x="571.936" y="-193" type="curve"/>
      <point x="577.244" y="-201" type="line"/>
      <point x="644.008" y="-187"/>
      <point x="704.929" y="-140"/>
      <point x="704.929" y="-32" type="curve" smooth="yes"/>
      <point x="704.929" y="635.086" type="line" smooth="yes"/>
      <point x="705.562" y="663.924"/>
      <point x="729.106" y="687.117"/>
      <point x="758.113" y="687.114" type="curve" smooth="yes"/>
      <point x="774.023" y="687.089" type="line"/>
      <point x="774.156" y="700" type="line"/>
    </contour>
  </outline>
</glyph>
<glyph name="OE" format="1">
  <advance width="997"/>
  <unicode hex="0152"/>
  <outline>
    <contour>
      <point x="992.39" y="161.544" type="line"/>
      <point x="982.39" y="161.544" type="line"/>
      <point x="951.521" y="85.4064"/>
      <point x="910.828" y="30.5934"/>
      <point x="804.865" y="30.5934" type="curve" smooth="yes"/>
      <point x="597.423" y="30.5934" type="line"/>
      <point x="597.423" y="330.219" type="line"/>
      <point x="787.483" y="330.219" type="line"/>
      <point x="813.796" y="329.181"/>
      <point x="834.82" y="307.555"/>
      <point x="834.82" y="280.978" type="curve" smooth="yes"/>
      <point x="834.804" y="266.244" type="line"/>
      <point x="844.577" y="266.12" type="line"/>
      <point x="844.577" y="424.376" type="line"/>
      <point x="834.804" y="424.251" type="line"/>
      <point x="834.821" y="409.517" type="line" smooth="yes"/>
      <point x="834.821" y="382.594"/>
      <point x="813.243" y="360.754"/>
      <point x="786.449" y="360.249" type="curve" smooth="yes"/>
      <point x="597.423" y="360.219" type="line"/>
      <point x="597.423" y="669.41" type="line"/>
      <point x="707.316" y="669.41" type="line"/>
      <point x="738.555" y="667.512"/>
      <point x="763.31" y="641.616"/>
      <point x="763.31" y="609.892" type="curve" smooth="yes"/>
      <point x="763.291" y="592.068" type="line"/>
      <point x="775.391" y="591.918" type="line"/>
      <point x="775.356" y="718.188" type="line"/>
      <point x="756.798" y="710.367"/>
      <point x="699.226" y="700.409"/>
      <point x="656.126" y="700" type="curve" smooth="yes"/>
      <point x="593.795" y="700" type="line" smooth="yes"/>
      <point x="563.451" y="700.065"/>
      <point x="546.323" y="702.51"/>
      <point x="526.586" y="705.341" type="curve" smooth="yes"/>
      <point x="492.25" y="710.264"/>
      <point x="443.758" y="714"/>
      <point x="414.432" y="714" type="curve" smooth="yes"/>
      <point x="201.773" y="714"/>
      <point x="60" y="568.397"/>
      <point x="60" y="349.992" type="curve" smooth="yes"/>
      <point x="60" y="131.597"/>
      <point x="201.773" y="-14"/>
      <point x="414.432" y="-14" type="curve" smooth="yes"/>
      <point x="450.675" y="-14"/>
      <point x="520.846" y="-3"/>
      <point x="542.005" y="-2" type="curve" smooth="yes"/>
      <point x="570.295" y="0"/>
      <point x="582.541" y="0"/>
      <point x="595.634" y="0" type="curve" smooth="yes"/>
      <point x="934.102" y="0.00141307" type="line"/>
    </contour>
    <contour>
      <point x="536.402" y="64.203" type="line" smooth="yes"/>
      <point x="536.402" y="31.4994"/>
      <point x="467.214" y="15.9249"/>
      <point x="414.432" y="15.925" type="curve" smooth="yes"/>
      <point x="244.773" y="15.925"/>
      <point x="131.667" y="149.552"/>
      <point x="131.667" y="349.992" type="curve" smooth="yes"/>
      <point x="131.667" y="550.442"/>
      <point x="244.773" y="684.075"/>
      <point x="414.432" y="684.075" type="curve" smooth="yes"/>
      <point x="467.021" y="684.075"/>
      <point x="536.402" y="672.707"/>
      <point x="536.402" y="635.545" type="curve" smooth="yes"/>
    </contour>
    <contour>
      <point x="570" y="700" type="move" smooth="yes"/>
    </contour>
  </outline>
</glyph>
<glyph name="Sacute" format="1">
  <advance width="549"/>
  <unicode hex="015A"/>
  <outline>
    <contour>
      <point x="282.359" y="763.971" type="line"/>
      <point x="335.982" y="790.399"/>
      <point x="389.606" y="817.828"/>
      <point x="443.229" y="849.256" type="curve"/>
      <point x="432.595" y="868.792"/>
      <point x="417.96" y="886.329"/>
      <point x="402.326" y="901.865" type="curve"/>
      <point x="360.004" y="861.234"/>
      <point x="317.681" y="816.602"/>
      <point x="275.359" y="770.971" type="curve"/>
    </contour>
    <contour>
      <point x="217.702" y="476.869" type="line" smooth="yes"/>
      <point x="185" y="503"/>
      <point x="174" y="536"/>
      <point x="174" y="567" type="curve" smooth="yes"/>
      <point x="174" y="633"/>
      <point x="223" y="684"/>
      <point x="295" y="684" type="curve" smooth="yes"/>
      <point x="356" y="684"/>
      <point x="410" y="648"/>
      <point x="411.129" y="581.094" type="curve"/>
      <point x="420.758" y="581.094" type="line"/>
      <point x="418.605" y="703.801" type="line"/>
      <point x="379.139" y="703.801" type="line"/>
      <point x="350.892" y="709.909"/>
      <point x="316.946" y="714"/>
      <point x="292" y="714" type="curve" smooth="yes"/>
      <point x="179" y="714"/>
      <point x="118" y="629"/>
      <point x="118" y="547" type="curve" smooth="yes"/>
      <point x="118" y="511"/>
      <point x="130" y="458"/>
      <point x="176.614" y="421.145" type="curve" smooth="yes"/>
      <point x="357.128" y="279.251" type="line" smooth="yes"/>
      <point x="515" y="154"/>
      <point x="442" y="-58"/>
      <point x="255.003" y="-58" type="curve" smooth="yes"/>
      <point x="82" y="-58"/>
      <point x="9" y="122"/>
      <point x="118.999" y="265.56" type="curve"/>
      <point x="109.999" y="272.56" type="line"/>
      <point x="-27" y="126"/>
      <point x="52" y="-94"/>
      <point x="272.409" y="-94" type="curve" smooth="yes"/>
      <point x="516" y="-94"/>
      <point x="603" y="173"/>
      <point x="403.239" y="330.968" type="curve" smooth="yes"/>
    </contour>
  </outline>
</glyph>
<glyph name="sacute" format="1">
  <advance width="476"/>
  <unicode hex="015B"/>
  <outline>
    <contour>
      <point x="247.201" y="763.971" type="line"/>
      <point x="300.824" y="790.399"/>
      <point x="354.448" y="817.828"/>
      <point x="408.071" y="849.256" type="curve"/>
      <point x="397.437" y="868.792"/>
      <point x="382.802" y="886.329"/>
      <point x="367.168" y="901.865" type="curve"/>
      <point x="324.846" y="861.234"/>
      <point x="282.523" y="816.602"/>
      <point x="240.201" y="770.971" type="curve"/>
    </contour>
    <contour>
      <point x="171.266" y="476.809" type="line" smooth="yes"/>
      <point x="139.752" y="506"/>
      <point x="131" y="542.935"/>
      <point x="131" y="569" type="curve" smooth="yes"/>
      <point x="131" y="629.935"/>
      <point x="180.315" y="684"/>
      <point x="254" y="684" type="curve" smooth="yes"/>
      <point x="316.315" y="684"/>
      <point x="366.752" y="645"/>
      <point x="366.512" y="581.034" type="curve"/>
      <point x="376.141" y="581.034" type="line"/>
      <point x="376.141" y="703.741" type="line"/>
      <point x="336.511" y="703.741" type="line"/>
      <point x="309.953" y="709.529"/>
      <point x="276.999" y="714"/>
      <point x="250.752" y="714" type="curve" smooth="yes"/>
      <point x="136.752" y="714"/>
      <point x="75" y="629.288"/>
      <point x="75" y="545" type="curve" smooth="yes"/>
      <point x="75" y="506.288"/>
      <point x="88.7521" y="458"/>
      <point x="129.205" y="421.085" type="curve" smooth="yes"/>
      <point x="320.759" y="243.189" type="line" smooth="yes"/>
      <point x="345.752" y="220"/>
      <point x="360" y="189.083"/>
      <point x="360" y="150" type="curve" smooth="yes"/>
      <point x="360" y="70.083"/>
      <point x="298.997" y="20.055"/>
      <point x="226" y="16" type="curve" smooth="yes"/>
      <point x="136.997" y="11.055"/>
      <point x="71.7521" y="77"/>
      <point x="81.8051" y="180.047" type="curve"/>
      <point x="73.0131" y="180.047" type="line"/>
      <point x="57.7801" y="135.21"/>
      <point x="54" y="71.51"/>
      <point x="61.4531" y="40.639" type="curve"/>
      <point x="100.752" y="0"/>
      <point x="181.752" y="-14"/>
      <point x="230.752" y="-14" type="curve" smooth="yes"/>
      <point x="345.752" y="-14"/>
      <point x="418" y="62.393"/>
      <point x="418" y="173" type="curve" smooth="yes"/>
      <point x="418" y="213.393"/>
      <point x="407.752" y="258"/>
      <point x="367.773" y="294.906" type="curve" smooth="yes"/>
    </contour>
  </outline>
</glyph>
<glyph name="Scedilla" format="1">
  <advance width="549"/>
  <unicode hex="015E"/>
  <outline>
    <contour>
      <point x="217.702" y="476.869" type="line" smooth="yes"/>
      <point x="185" y="503"/>
      <point x="174" y="536"/>
      <point x="174" y="567" type="curve" smooth="yes"/>
      <point x="174" y="633"/>
      <point x="223" y="684"/>
      <point x="295" y="684" type="curve" smooth="yes"/>
      <point x="356" y="684"/>
      <point x="410" y="648"/>
      <point x="411.129" y="581.094" type="curve"/>
      <point x="420.758" y="581.094" type="line"/>
      <point x="418.605" y="703.801" type="line"/>
      <point x="379.139" y="703.801" type="line"/>
      <point x="350.892" y="709.909"/>
      <point x="316.946" y="714"/>
      <point x="292" y="714" type="curve" smooth="yes"/>
      <point x="179" y="714"/>
      <point x="118" y="629"/>
      <point x="118" y="547" type="curve" smooth="yes"/>
      <point x="118" y="511"/>
      <point x="130" y="458"/>
      <point x="176.614" y="421.145" type="curve" smooth="yes"/>
      <point x="357.128" y="279.251" type="line" smooth="yes"/>
      <point x="515" y="154"/>
      <point x="442" y="-58"/>
      <point x="255.003" y="-58" type="curve" smooth="yes"/>
      <point x="82" y="-58"/>
      <point x="9" y="122"/>
      <point x="118.999" y="265.56" type="curve"/>
      <point x="109.999" y="272.56" type="line"/>
      <point x="-25" y="127.851"/>
      <point x="50.0396" y="-88"/>
      <point x="264.127" y="-94" type="curve"/>
      <point x="217.144" y="-155" type="line"/>
      <point x="222.144" y="-165" type="line"/>
      <point x="257.774" y="-150"/>
      <point x="304.411" y="-156"/>
      <point x="305.91" y="-198" type="curve" smooth="yes"/>
      <point x="307.645" y="-246"/>
      <point x="256.891" y="-262"/>
      <point x="215.869" y="-262" type="curve"/>
      <point x="215.144" y="-272" type="line"/>
      <point x="282.168" y="-293"/>
      <point x="357.91" y="-262"/>
      <point x="355.91" y="-199" type="curve" smooth="yes"/>
      <point x="353.738" y="-130"/>
      <point x="286.052" y="-129"/>
      <point x="251.066" y="-141" type="curve"/>
      <point x="292.083" y="-93" type="line"/>
      <point x="520.554" y="-79"/>
      <point x="597.525" y="177.33"/>
      <point x="403.239" y="330.968" type="curve" smooth="yes"/>
    </contour>
  </outline>
</glyph>
<glyph name="scaron" format="1">
  <advance width="476"/>
  <unicode hex="0161"/>
  <outline>
    <contour>
      <point x="252.222" y="764.153" type="line"/>
      <point x="242.222" y="764.153" type="line"/>
      <point x="128.047" y="883.005" type="line"/>
      <point x="134.047" y="891.005" type="line"/>
      <point x="247.692" y="824.909" type="line"/>
      <point x="352.352" y="890.909" type="line"/>
      <point x="358.352" y="882.909" type="line"/>
    </contour>
    <contour>
      <point x="171.266" y="476.809" type="line" smooth="yes"/>
      <point x="139.752" y="506"/>
      <point x="131" y="542.935"/>
      <point x="131" y="569" type="curve" smooth="yes"/>
      <point x="131" y="629.935"/>
      <point x="180.315" y="684"/>
      <point x="254" y="684" type="curve" smooth="yes"/>
      <point x="316.315" y="684"/>
      <point x="366.752" y="645"/>
      <point x="366.512" y="581.034" type="curve"/>
      <point x="376.141" y="581.034" type="line"/>
      <point x="376.141" y="703.741" type="line"/>
      <point x="336.511" y="703.741" type="line"/>
      <point x="309.953" y="709.529"/>
      <point x="276.999" y="714"/>
      <point x="250.752" y="714" type="curve" smooth="yes"/>
      <point x="136.752" y="714"/>
      <point x="75" y="629.288"/>
      <point x="75" y="545" type="curve" smooth="yes"/>
      <point x="75" y="506.288"/>
      <point x="88.7521" y="458"/>
      <point x="129.205" y="421.085" type="curve" smooth="yes"/>
      <point x="320.759" y="243.189" type="line" smooth="yes"/>
      <point x="345.752" y="220"/>
      <point x="360" y="189.083"/>
      <point x="360" y="150" type="curve" smooth="yes"/>
      <point x="360" y="70.083"/>
      <point x="298.997" y="20.055"/>
      <point x="226" y="16" type="curve" smooth="yes"/>
      <point x="136.997" y="11.055"/>
      <point x="71.7521" y="77"/>
      <point x="81.8051" y="180.047" type="curve"/>
      <point x="73.0131" y="180.047" type="line"/>
      <point x="57.7801" y="135.21"/>
      <point x="54" y="71.51"/>
      <point x="61.4531" y="40.639" type="curve"/>
      <point x="100.752" y="0"/>
      <point x="181.752" y="-14"/>
      <point x="230.752" y="-14" type="curve" smooth="yes"/>
      <point x="345.752" y="-14"/>
      <point x="418" y="62.393"/>
      <point x="418" y="173" type="curve" smooth="yes"/>
      <point x="418" y="213.393"/>
      <point x="407.752" y="258"/>
      <point x="367.773" y="294.906" type="curve" smooth="yes"/>
    </contour>
  </outline>
</glyph>
<glyph name="Tcaron" format="1">
  <advance width="618"/>
  <unicode hex="0164"/>
  <outline>
    <contour>
      <point x="313.953" y="700.153" type="line"/>
      <point x="303.953" y="700.153" type="line"/>
      <point x="189.778" y="819.005" type="line"/>
      <point x="195.778" y="827.005" type="line"/>
      <point x="309.423" y="760.909" type="line"/>
      <point x="414.083" y="826.909" type="line"/>
      <point x="420.083" y="818.909" type="line"/>
    </contour>
    <contour>
      <point x="68.033" y="701" type="line" smooth="yes"/>
      <point x="-65" y="701"/>
      <point x="-134" y="592.429"/>
      <point x="-59" y="501" type="curve"/>
      <point x="-51" y="506" type="line"/>
      <point x="-96" y="590.981"/>
      <point x="-39" y="671.02"/>
      <point x="68.033" y="671.02" type="curve" smooth="yes"/>
      <point x="276.731" y="671.02" type="line"/>
      <point x="276.731" y="71.2341" type="line"/>
      <point x="275.237" y="37.158"/>
      <point x="247.183" y="9.97861"/>
      <point x="212.728" y="9.97861" type="curve" smooth="yes"/>
      <point x="200.078" y="9.99961" type="line"/>
      <point x="199.917" y="0" type="line"/>
      <point x="418.835" y="0" type="line"/>
      <point x="418.674" y="9.99961" type="line"/>
      <point x="406.024" y="9.97861" type="line" smooth="yes"/>
      <point x="371.291" y="9.97861"/>
      <point x="343.061" y="37.5998"/>
      <point x="341.99" y="72.063" type="curve"/>
      <point x="341.99" y="671.02" type="line"/>
      <point x="531.535" y="671.02" type="line"/>
      <point x="563.258" y="669.635"/>
      <point x="588.559" y="643.519"/>
      <point x="588.559" y="611.448" type="curve" smooth="yes"/>
      <point x="588.54" y="593.624" type="line"/>
      <point x="598.605" y="593.474" type="line"/>
      <point x="598.605" y="719.196" type="line"/>
      <point x="579.873" y="711.301"/>
      <point x="521.393" y="701.229"/>
      <point x="478.168" y="701" type="curve" smooth="yes"/>
    </contour>
  </outline>
</glyph>
<glyph name="Uhungarumlaut" format="1">
  <advance width="783"/>
  <unicode hex="0170"/>
  <outline>
    <contour>
      <point x="364.528" y="768.383" type="line"/>
      <point x="406.485" y="808.478"/>
      <point x="445.441" y="848.573"/>
      <point x="481.398" y="888.668" type="curve"/>
      <point x="462.097" y="896.871"/>
      <point x="440.796" y="900.074"/>
      <point x="420.495" y="901.277" type="curve"/>
      <point x="396.173" y="857.646"/>
      <point x="373.85" y="814.014"/>
      <point x="353.528" y="770.383" type="curve"/>
    </contour>
    <contour>
      <point x="486.754" y="768.383" type="line"/>
      <point x="529.711" y="807.478"/>
      <point x="567.667" y="848.573"/>
      <point x="603.624" y="888.668" type="curve"/>
      <point x="585.323" y="895.871"/>
      <point x="563.022" y="901.074"/>
      <point x="542.721" y="901.277" type="curve"/>
      <point x="515.399" y="857.646"/>
      <point x="494.076" y="814.014"/>
      <point x="475.754" y="770.383" type="curve"/>
    </contour>
    <contour>
      <point x="619.31" y="247.399" type="line" smooth="yes"/>
      <point x="619.152" y="109.457"/>
      <point x="530.011" y="17.4954"/>
      <point x="396.423" y="17.4954" type="curve" smooth="yes"/>
      <point x="269.022" y="17.4954"/>
      <point x="184.088" y="114.614"/>
      <point x="184.088" y="260.292" type="curve" smooth="yes"/>
      <point x="184.088" y="642" type="line"/>
      <point x="185.312" y="669.975"/>
      <point x="208.433" y="690.017"/>
      <point x="236.814" y="690.017" type="curve" smooth="yes"/>
      <point x="253.11" y="690" type="line"/>
      <point x="253.11" y="700" type="line"/>
      <point x="50" y="700" type="line"/>
      <point x="50" y="690" type="line"/>
      <point x="66.2945" y="690.017" type="line" smooth="yes"/>
      <point x="95.1832" y="690.017"/>
      <point x="118.619" y="669.255"/>
      <point x="119.161" y="640.499" type="curve" smooth="yes"/>
      <point x="119.161" y="245.596" type="line" smooth="yes"/>
      <point x="119.097" y="89.8385"/>
      <point x="230.028" y="-14"/>
      <point x="396.423" y="-14" type="curve" smooth="yes"/>
      <point x="558.153" y="-14"/>
      <point x="665.959" y="90.5365"/>
      <point x="665.973" y="247.34" type="curve" smooth="yes"/>
      <point x="665.973" y="580.014" type="line" smooth="yes"/>
      <point x="666.018" y="766.99"/>
      <point x="761.205" y="861.64"/>
      <point x="903.969" y="861.64" type="curve"/>
      <point x="903.969" y="871.64" type="line"/>
      <point x="733.243" y="878.614"/>
      <point x="619.377" y="779.439"/>
      <point x="619.31" y="578.702" type="curve" smooth="yes"/>
    </contour>
  </outline>
</glyph>
<glyph name="wcircumflex" format="1">
  <advance width="982"/>
  <unicode hex="0175"/>
  <outline>
    <contour>
      <point x="501.943" y="899.737" type="line"/>
      <point x="511.943" y="899.737" type="line"/>
      <point x="626.118" y="780.885" type="line"/>
      <point x="620.118" y="772.885" type="line"/>
      <point x="506.473" y="838.981" type="line"/>
      <point x="401.813" y="772.981" type="line"/>
      <point x="395.813" y="780.981" type="line"/>
    </contour>
    <contour>
      <point x="794.803" y="700" type="line"/>
      <point x="794.803" y="690.093" type="line"/>
      <point x="803.595" y="690.093" type="line" smooth="yes"/>
      <point x="830.803" y="690.093"/>
      <point x="852.24" y="668.812"/>
      <point x="842.309" y="630.432" type="curve"/>
      <point x="708.397" y="162.156" type="line"/>
      <point x="511.183" y="715.321" type="line"/>
      <point x="501.87" y="715.642" type="line"/>
      <point x="315.666" y="141.939" type="line"/>
      <point x="164.398" y="628.627" type="line" smooth="yes"/>
      <point x="152.615" y="667.948"/>
      <point x="177.867" y="690.087"/>
      <point x="203.442" y="690.087" type="curve" smooth="yes"/>
      <point x="212.234" y="690.087" type="line"/>
      <point x="212.234" y="700" type="line"/>
      <point x="-10" y="700" type="line"/>
      <point x="-10" y="690" type="line"/>
      <point x="-2" y="690" type="line" smooth="yes"/>
      <point x="28.6411" y="690"/>
      <point x="69.071" y="672.466"/>
      <point x="85.6524" y="629.023" type="curve"/>
      <point x="312.596" y="-12" type="line"/>
      <point x="322.032" y="-12" type="line"/>
      <point x="323.678" y="37.1502"/>
      <point x="342.993" y="99.1572"/>
      <point x="342.993" y="99.1572" type="curve"/>
      <point x="494.496" y="559.826" type="line"/>
      <point x="698.988" y="-12" type="line"/>
      <point x="708.424" y="-12" type="line"/>
      <point x="709.955" y="35.6252"/>
      <point x="730.285" y="99.1572"/>
      <point x="730.285" y="99.1572" type="curve"/>
      <point x="895.869" y="628.034" type="line"/>
      <point x="911.233" y="672.193"/>
      <point x="953.097" y="690"/>
      <point x="983.622" y="690" type="curve" smooth="yes"/>
      <point x="992.413" y="690" type="line"/>
      <point x="992.412" y="700" type="line"/>
    </contour>
  </outline>
</glyph>
<glyph name="Zcaron" format="1">
  <advance width="636"/>
  <unicode hex="017D"/>
  <outline>
    <contour>
      <point x="328.954" y="764.152" type="line"/>
      <point x="318.954" y="764.152" type="line"/>
      <point x="204.779" y="883.004" type="line"/>
      <point x="210.779" y="891.004" type="line"/>
      <point x="324.424" y="824.908" type="line"/>
      <point x="429.084" y="890.908" type="line"/>
      <point x="435.084" y="882.908" type="line"/>
    </contour>
    <contour>
      <point x="991.213" y="-81" type="line"/>
      <point x="811" y="-158"/>
      <point x="660.776" y="-154"/>
      <point x="250" y="-19" type="curve" smooth="yes"/>
      <point x="210.167" y="-6"/>
      <point x="177.983" y="5.97859"/>
      <point x="143.281" y="15.3348" type="curve"/>
      <point x="579.594" y="705.328" type="line"/>
      <point x="579.594" y="714" type="line"/>
      <point x="567.791" y="707.817"/>
      <point x="513.843" y="701.098"/>
      <point x="473.627" y="701.098" type="curve" smooth="yes"/>
      <point x="194.578" y="701.098" type="line" smooth="yes"/>
      <point x="153.272" y="700.997"/>
      <point x="92.5765" y="711.494"/>
      <point x="74.3011" y="719.196" type="curve"/>
      <point x="74.3011" y="689.918" type="line"/>
      <point x="74.3481" y="673.565" type="line"/>
      <point x="74.3481" y="593.264" type="line"/>
      <point x="84.3661" y="593.414" type="line"/>
      <point x="84.3471" y="611.238" type="line" smooth="yes"/>
      <point x="84.3471" y="643.797"/>
      <point x="110.423" y="670.218"/>
      <point x="142.823" y="670.856" type="curve" smooth="yes"/>
      <point x="480.248" y="670.856" type="line"/>
      <point x="60.1846" y="9.32168" type="line"/>
      <point x="60" y="0" type="line"/>
      <point x="72.4726" y="0" type="line"/>
      <point x="227.481" y="-10"/>
      <point x="752.185" y="-373"/>
      <point x="996.212" y="-89" type="curve"/>
    </contour>
  </outline>
</glyph>
<glyph name="zcaron" format="1">
  <advance width="651"/>
  <unicode hex="017E"/>
  <outline>
    <contour>
      <point x="328.954" y="764.153" type="line"/>
      <point x="318.954" y="764.153" type="line"/>
      <point x="204.779" y="883.005" type="line"/>
      <point x="210.779" y="891.005" type="line"/>
      <point x="324.424" y="824.909" type="line"/>
      <point x="429.084" y="890.909" type="line"/>
      <point x="435.084" y="882.909" type="line"/>
    </contour>
    <contour>
      <point x="606.845" y="154.443" type="line"/>
      <point x="587.87" y="84.6837"/>
      <point x="544.789" y="29.9059"/>
      <point x="470.401" y="29.7339" type="curve" smooth="yes"/>
      <point x="152.386" y="29.7339" type="line"/>
      <point x="579.594" y="705.328" type="line"/>
      <point x="579.594" y="714" type="line"/>
      <point x="567.791" y="707.817"/>
      <point x="513.843" y="701.098"/>
      <point x="473.627" y="701.098" type="curve" smooth="yes"/>
      <point x="194.578" y="701.098" type="line" smooth="yes"/>
      <point x="153.272" y="700.997"/>
      <point x="92.5767" y="711.494"/>
      <point x="74.3013" y="719.196" type="curve"/>
      <point x="74.3013" y="689.918" type="line"/>
      <point x="74.3483" y="673.565" type="line"/>
      <point x="74.3483" y="593.264" type="line"/>
      <point x="84.3663" y="593.414" type="line"/>
      <point x="84.3473" y="611.238" type="line" smooth="yes"/>
      <point x="84.3473" y="643.797"/>
      <point x="110.424" y="670.218"/>
      <point x="142.823" y="670.856" type="curve" smooth="yes"/>
      <point x="480.248" y="670.856" type="line"/>
      <point x="60.1848" y="9.32178" type="line"/>
      <point x="60" y="0" type="line"/>
      <point x="583.69" y="0" type="line"/>
      <point x="616.845" y="154.443" type="line"/>
    </contour>
  </outline>
</glyph>
<glyph name="scommaaccent" format="1">
  <advance width="476"/>
  <unicode hex="0219"/>
  <outline>
    <contour>
      <point x="171.266" y="476.809" type="line" smooth="yes"/>
      <point x="139.752" y="506"/>
      <point x="131" y="542.935"/>
      <point x="131" y="569" type="curve" smooth="yes"/>
      <point x="131" y="629.935"/>
      <point x="180.315" y="684"/>
      <point x="254" y="684" type="curve" smooth="yes"/>
      <point x="316.315" y="684"/>
      <point x="366.752" y="645"/>
      <point x="366.512" y="581.034" type="curve"/>
      <point x="376.141" y="581.034" type="line"/>
      <point x="376.141" y="703.741" type="line"/>
      <point x="336.511" y="703.741" type="line"/>
      <point x="309.953" y="709.529"/>
      <point x="276.999" y="714"/>
      <point x="250.752" y="714" type="curve" smooth="yes"/>
      <point x="136.752" y="714"/>
      <point x="75" y="629.288"/>
      <point x="75" y="545" type="curve" smooth="yes"/>
      <point x="75" y="506.288"/>
      <point x="88.7521" y="458"/>
      <point x="129.205" y="421.085" type="curve" smooth="yes"/>
      <point x="320.759" y="243.189" type="line" smooth="yes"/>
      <point x="345.752" y="220"/>
      <point x="360" y="189.083"/>
      <point x="360" y="150" type="curve" smooth="yes"/>
      <point x="360" y="70.083"/>
      <point x="298.997" y="20.055"/>
      <point x="226" y="16" type="curve" smooth="yes"/>
      <point x="136.997" y="11.055"/>
      <point x="71.7521" y="77"/>
      <point x="81.8051" y="180.047" type="curve"/>
      <point x="73.0131" y="180.047" type="line"/>
      <point x="57.7801" y="135.21"/>
      <point x="54" y="71.51"/>
      <point x="61.4531" y="40.639" type="curve"/>
      <point x="100.752" y="0"/>
      <point x="181.752" y="-14"/>
      <point x="230.752" y="-14" type="curve" smooth="yes"/>
      <point x="345.752" y="-14"/>
      <point x="418" y="62.393"/>
      <point x="418" y="173" type="curve" smooth="yes"/>
      <point x="418" y="213.393"/>
      <point x="407.752" y="258"/>
      <point x="367.773" y="294.906" type="curve" smooth="yes"/>
    </contour>
    <contour>
      <point x="208.163" y="-208" type="line"/>
      <point x="260.444" y="-206"/>
      <point x="303.506" y="-151"/>
      <point x="277.512" y="-89" type="curve" smooth="yes"/>
      <point x="263.982" y="-56"/>
      <point x="225.033" y="-58"/>
      <point x="214.839" y="-81" type="curve" smooth="yes"/>
      <point x="205.877" y="-101"/>
      <point x="222.787" y="-115"/>
      <point x="233.21" y="-128" type="curve" smooth="yes"/>
      <point x="246.891" y="-144"/>
      <point x="254.853" y="-186"/>
      <point x="206.212" y="-201" type="curve"/>
    </contour>
  </outline>
</glyph>
<glyph name="commaaccentcomb" format="1">
  <advance width="139"/>
  <unicode hex="0326"/>
  <outline>
    <contour>
      <point x="29.6645" y="-37"/>
      <point x="46.5744" y="-51"/>
      <point x="56.9975" y="-64" type="curve" smooth="yes"/>
      <point x="70.6793" y="-80"/>
      <point x="78.6405" y="-122"/>
      <point x="30" y="-137" type="curve"/>
      <point x="31.9512" y="-144" type="line"/>
      <point x="84.2322" y="-142"/>
      <point x="127.294" y="-87"/>
      <point x="101.3" y="-25" type="curve" smooth="yes"/>
      <point x="87.7694" y="7.8261"/>
      <point x="48.8207" y="6.17899"/>
      <point x="38.6264" y="-17" type="curve" smooth="yes"/>
    </contour>
    <contour>
      <point x="65.846" y="0" type="move" name="_bottom"/>
    </contour>
  </outline>
</glyph>
<glyph name="Ygrave" format="1">
  <advance width="618"/>
  <unicode hex="1EF2"/>
  <outline>
    <contour>
      <point x="338.112" y="771" type="line"/>
      <point x="295.79" y="817.631"/>
      <point x="253.467" y="861.263"/>
      <point x="211.145" y="901.894" type="curve"/>
      <point x="195.511" y="887.358"/>
      <point x="180.876" y="869.821"/>
      <point x="170.242" y="849.285" type="curve"/>
      <point x="223.865" y="817.857"/>
      <point x="277.489" y="789.428"/>
      <point x="331.112" y="764" type="curve"/>
    </contour>
    <contour>
      <point x="-40" y="747.139" type="line"/>
      <point x="125.856" y="747.139"/>
      <point x="284.572" y="397.808"/>
      <point x="284.572" y="221.296" type="curve" smooth="yes"/>
      <point x="284.572" y="72.234" type="line" smooth="yes"/>
      <point x="283.65" y="37.6632"/>
      <point x="254.795" y="9.99971"/>
      <point x="221" y="9.99971" type="curve" smooth="yes"/>
      <point x="207.882" y="9.99971" type="line"/>
      <point x="207.721" y="0" type="line"/>
      <point x="426.468" y="0" type="line"/>
      <point x="426.307" y="9.99971" type="line"/>
      <point x="414" y="9.99971" type="line" smooth="yes"/>
      <point x="377" y="9.99971"/>
      <point x="350" y="39.9997"/>
      <point x="349.603" y="72.8637" type="curve" smooth="yes"/>
      <point x="349.603" y="220.367" type="line" smooth="yes"/>
      <point x="349.59" y="385.23"/>
      <point x="500.423" y="747.139"/>
      <point x="658.831" y="747.139" type="curve"/>
      <point x="658.831" y="757.139" type="line"/>
      <point x="461.831" y="757.139"/>
      <point x="387.058" y="532.384"/>
      <point x="328.037" y="375.779" type="curve"/>
      <point x="278.265" y="511.504"/>
      <point x="204.888" y="767.139"/>
      <point x="-40" y="757.139" type="curve"/>
    </contour>
  </outline>
</glyph>
<glyph name="quoteleft" format="1">
  <advance width="194"/>
  <unicode hex="2018"/>
  <outline>
    <contour>
      <point x="147.235" y="783.541" type="line"/>
      <point x="77.9511" y="781.351"/>
      <point x="20.8826" y="707.97"/>
      <point x="55.3322" y="625.361" type="curve" smooth="yes"/>
      <point x="73.2634" y="582.495"/>
      <point x="124.879" y="584.678"/>
      <point x="138.389" y="615.367" type="curve" smooth="yes"/>
      <point x="150.265" y="642.345"/>
      <point x="127.856" y="660.904"/>
      <point x="114.043" y="677.435" type="curve" smooth="yes"/>
      <point x="95.9114" y="699.208"/>
      <point x="85.3614" y="753.97"/>
      <point x="149.821" y="774.779" type="curve"/>
    </contour>
  </outline>
</glyph>
<glyph name="quoteright" format="1">
  <advance width="189"/>
  <unicode hex="2019"/>
  <outline>
    <contour>
      <point x="47.4631" y="597.72" type="line"/>
      <point x="113.448" y="599.806"/>
      <point x="167.799" y="669.693"/>
      <point x="134.99" y="748.368" type="curve" smooth="yes"/>
      <point x="117.912" y="789.193"/>
      <point x="68.7547" y="787.114"/>
      <point x="55.888" y="757.886" type="curve" smooth="yes"/>
      <point x="44.5775" y="732.193"/>
      <point x="65.9194" y="714.518"/>
      <point x="79.0746" y="698.774" type="curve" smooth="yes"/>
      <point x="96.3428" y="678.038"/>
      <point x="106.39" y="625.883"/>
      <point x="45" y="606.065" type="curve"/>
    </contour>
  </outline>
</glyph>
<glyph name="quotesinglbase" format="1">
  <advance width="194"/>
  <unicode hex="201A"/>
  <outline>
    <contour>
      <point x="47.5861" y="-97" type="line"/>
      <point x="116.871" y="-95"/>
      <point x="173.939" y="-22"/>
      <point x="139.49" y="60.8828" type="curve" smooth="yes"/>
      <point x="121.558" y="103.749"/>
      <point x="69.9426" y="101.566"/>
      <point x="56.4323" y="70.8768" type="curve" smooth="yes"/>
      <point x="44.5558" y="43.8988"/>
      <point x="66.9651" y="25.3395"/>
      <point x="80.7785" y="8.80931" type="curve" smooth="yes"/>
      <point x="98.9104" y="-13"/>
      <point x="109.46" y="-68"/>
      <point x="45" y="-89" type="curve"/>
    </contour>
  </outline>
</glyph>
<glyph name="quotedblright" format="1">
  <advance width="334"/>
  <unicode hex="201D"/>
  <outline>
    <contour>
      <point x="47.4629" y="597.72" type="line"/>
      <point x="113.448" y="599.806"/>
      <point x="167.799" y="669.693"/>
      <point x="134.99" y="748.368" type="curve" smooth="yes"/>
      <point x="117.912" y="789.193"/>
      <point x="68.7545" y="787.114"/>
      <point x="55.8878" y="757.886" type="curve" smooth="yes"/>
      <point x="44.5773" y="732.193"/>
      <point x="65.9192" y="714.518"/>
      <point x="79.0744" y="698.774" type="curve" smooth="yes"/>
      <point x="96.3426" y="678.038"/>
      <point x="106.39" y="625.883"/>
      <point x="45" y="606.065" type="curve"/>
    </contour>
    <contour>
      <point x="187.463" y="597.72" type="line"/>
      <point x="253.448" y="599.806"/>
      <point x="307.799" y="669.693"/>
      <point x="274.989" y="748.368" type="curve" smooth="yes"/>
      <point x="257.912" y="789.193"/>
      <point x="208.754" y="787.114"/>
      <point x="195.888" y="757.886" type="curve" smooth="yes"/>
      <point x="184.577" y="732.193"/>
      <point x="205.919" y="714.517"/>
      <point x="219.074" y="698.774" type="curve" smooth="yes"/>
      <point x="236.343" y="678.037"/>
      <point x="246.39" y="625.883"/>
      <point x="185" y="606.065" type="curve"/>
    </contour>
  </outline>
</glyph>
<glyph name="partialdiff" format="1">
  <advance width="566"/>
  <unicode hex="2202"/>
  <outline>
    <contour>
      <point x="78.6898" y="577.385" type="line"/>
      <point x="148.933" y="674.889"/>
      <point x="230.277" y="672.87"/>
      <point x="289.068" y="659" type="curve" smooth="yes"/>
      <point x="390.793" y="635"/>
      <point x="436.898" y="506.005"/>
      <point x="435.252" y="368.076" type="curve"/>
      <point x="265.526" y="513.948"/>
      <point x="106.449" y="384.42"/>
      <point x="71.8842" y="262.167" type="curve" smooth="yes"/>
      <point x="34.7848" y="130.95"/>
      <point x="80.8069" y="-24"/>
      <point x="263.068" y="-14" type="curve" smooth="yes"/>
      <point x="407.16" y="-6"/>
      <point x="492.824" y="117.893"/>
      <point x="505.824" y="333.088" type="curve" smooth="yes"/>
      <point x="517.774" y="530.893"/>
      <point x="431.916" y="697.424"/>
      <point x="293.068" y="714" type="curve" smooth="yes"/>
      <point x="187.157" y="726.644"/>
      <point x="120.305" y="682.494"/>
      <point x="69.6897" y="584.385" type="curve"/>
    </contour>
    <contour>
      <point x="137.632" y="231.167" type="curve" smooth="yes"/>
      <point x="169.007" y="357.375"/>
      <point x="256.905" y="452.203"/>
      <point x="434.93" y="354.312" type="curve"/>
      <point x="433.824" y="333.089" type="line"/>
      <point x="420.824" y="145.883"/>
      <point x="346.232" y="24.0525"/>
      <point x="263.068" y="16" type="curve" smooth="yes"/>
      <point x="159.789" y="6"/>
      <point x="108.324" y="113.275"/>
    </contour>
  </outline>
</glyph>
<glyph name="fi" format="1">
  <advance width="879"/>
  <unicode hex="FB01"/>
  <outline>
    <contour>
      <point x="471.797" y="718.187" type="line"/>
      <point x="453.252" y="710.365"/>
      <point x="395.68" y="700.407"/>
      <point x="352.581" y="700" type="curve" smooth="yes"/>
      <point x="60.3513" y="700" type="line"/>
      <point x="60.5133" y="690.06" type="line"/>
      <point x="73.1633" y="690.08" type="line" smooth="yes"/>
      <point x="106.267" y="690.08"/>
      <point x="136.869" y="664.988"/>
      <point x="136.869" y="632.797" type="curve" smooth="yes"/>
      <point x="136.869" y="72.8633" type="line" smooth="yes"/>
      <point x="136.21" y="38.0283"/>
      <point x="107.813" y="9.97829"/>
      <point x="72.8113" y="9.97829" type="curve" smooth="yes"/>
      <point x="60.1613" y="9.99929" type="line"/>
      <point x="60" y="0" type="line"/>
      <point x="278.782" y="0" type="line"/>
      <point x="278.621" y="9.99929" type="line"/>
      <point x="265.971" y="9.97829" type="line" smooth="yes"/>
      <point x="230.969" y="9.97829"/>
      <point x="202.572" y="38.0283"/>
      <point x="201.917" y="72.8633" type="curve" smooth="yes"/>
      <point x="201.917" y="330.217" type="line"/>
      <point x="371.938" y="330.217" type="line"/>
      <point x="398.251" y="329.179"/>
      <point x="419.275" y="307.553"/>
      <point x="419.275" y="280.976" type="curve" smooth="yes"/>
      <point x="419.259" y="266.242" type="line"/>
      <point x="429.032" y="266.118" type="line"/>
      <point x="429.032" y="424.374" type="line"/>
      <point x="419.259" y="424.249" type="line"/>
      <point x="419.276" y="409.515" type="line" smooth="yes"/>
      <point x="419.276" y="382.592"/>
      <point x="397.698" y="360.752"/>
      <point x="370.904" y="360.247" type="curve" smooth="yes"/>
      <point x="201.901" y="360.247" type="line"/>
      <point x="201.901" y="669.408" type="line"/>
      <point x="413.456" y="669.408" type="line" smooth="yes"/>
      <point x="440.253" y="668.882"/>
      <point x="461.827" y="647.037"/>
      <point x="461.827" y="620.114" type="curve" smooth="yes"/>
      <point x="461.811" y="605.383" type="line"/>
      <point x="471.811" y="605.259" type="line"/>
      <point x="471.811" y="671.624" type="line"/>
      <point x="471.797" y="688.91" type="line"/>
    </contour>
    <contour>
      <point x="819.626" y="9.99947" type="line"/>
      <point x="806.976" y="9.97847" type="line" smooth="yes"/>
      <point x="771.974" y="9.97847"/>
      <point x="743.577" y="38.0285"/>
      <point x="742.922" y="72.8635" type="curve" smooth="yes"/>
      <point x="742.922" y="627.817" type="line" smooth="yes"/>
      <point x="743.901" y="662.363"/>
      <point x="772.167" y="690.079"/>
      <point x="806.959" y="690.079" type="curve" smooth="yes"/>
      <point x="819.609" y="690.059" type="line"/>
      <point x="819.771" y="700.059" type="line"/>
      <point x="601.016" y="700.059" type="line"/>
      <point x="601.178" y="690.059" type="line"/>
      <point x="613.828" y="690.079" type="line" smooth="yes"/>
      <point x="648.692" y="690.079"/>
      <point x="677.004" y="662.249"/>
      <point x="677.873" y="627.605" type="curve" smooth="yes"/>
      <point x="677.873" y="72.8629" type="line" smooth="yes"/>
      <point x="677.21" y="38.0279"/>
      <point x="648.813" y="9.97794"/>
      <point x="613.811" y="9.97794" type="curve" smooth="yes"/>
      <point x="601.161" y="9.99894" type="line"/>
      <point x="601" y="0" type="line"/>
      <point x="819.787" y="0" type="line"/>
    </contour>
  </outline>
</glyph>
